<svg width="16" height="16" viewBox="0 0 16 16" fill="none" xmlns="http://www.w3.org/2000/svg">
<path fill-rule="evenodd" clip-rule="evenodd" d="M7.376 11.329C7.513 11.13 7.741 11 8 11C8.259 11 8.487 11.13 8.624 11.329L10.845 14.682C10.942 14.819 11 14.986 11 15.167C11 15.627 10.627 16 10.167 16H5.833C5.373 16 5 15.627 5 15.167C5 15.008 5.044 14.86 5.122 14.733C5.132 14.716 5.144 14.699 5.155 14.682L7.362 11.35C7.367 11.343 7.371 11.336 7.376 11.329ZM3.997 12.728C3.885 12.898 3.694 13 3.49 13C2.967 13 2 13 2 13C0.896 13 0 12.104 0 11V3C0 1.896 0.896 1 2 1H14C15.104 1 16 1.896 16 3V11C16 12.104 15.104 13 14 13C14 13 13.027 13 12.505 13C12.304 13 12.116 12.899 12.005 12.731C11.75 12.346 11.283 11.642 11.031 11.261C10.997 11.209 10.994 11.143 11.023 11.088C11.052 11.034 11.109 11 11.171 11C11.884 11 13.572 11 13.572 11C13.808 11 14 10.808 14 10.572V3.428C14 3.192 13.808 3 13.572 3H2.428C2.192 3 2 3.192 2 3.428V10.572C2 10.808 2.192 11 2.428 11C2.428 11 4.116 11 4.829 11C4.891 11 4.948 11.034 4.977 11.088C5.006 11.143 5.003 11.209 4.969 11.261C4.718 11.64 4.253 12.342 3.997 12.728Z" fill="#333333"/>
</svg>
