<svg width="16" height="16" viewBox="0 0 16 16" fill="none" xmlns="http://www.w3.org/2000/svg">
<path fill-rule="evenodd" clip-rule="evenodd" d="M13.5 9C14.328 9 15 9.672 15 10.5V13.5C15 14.328 14.328 15 13.5 15H10.5C9.672 15 9 14.328 9 13.5V10.5C9 9.672 9.672 9 10.5 9H13.5ZM5.5 9C6.328 9 7 9.672 7 10.5V13.5C7 14.328 6.328 15 5.5 15H2.5C1.672 15 1 14.328 1 13.5V10.5C1 9.672 1.672 9 2.5 9H5.5ZM5.5 1C6.328 1 7 1.672 7 2.5V5.5C7 6.328 6.328 7 5.5 7H2.5C1.672 7 1 6.328 1 5.5V2.5C1 1.672 1.672 1 2.5 1H5.5ZM13.5 1C14.328 1 15 1.672 15 2.5V5.5C15 6.328 14.328 7 13.5 7H10.5C9.672 7 9 6.328 9 5.5V2.5C9 1.672 9.672 1 10.5 1H13.5Z" fill="#333333"/>
</svg>
