<svg width="16" height="16" viewBox="0 0 16 16" fill="none" xmlns="http://www.w3.org/2000/svg">
<path fill-rule="evenodd" clip-rule="evenodd" d="M13.2 15H2.79997C1.80697 15 0.999971 14.193 0.999971 13.2V5.976C0.999971 5.976 0.938971 4.558 2.13797 3.359C3.33797 2.159 3.61897 1.878 3.61897 1.878C3.61897 1.878 4.27197 1 5.91997 1H10.08C11.728 1 12.381 1.878 12.381 1.878C12.381 1.878 12.662 2.159 13.862 3.359C15.061 4.558 15 5.976 15 5.976V13.2C15 14.193 14.193 15 13.2 15ZM9.18397 9.404L8.68497 7.178H8.68397C8.62897 6.961 8.43297 6.8 8.19897 6.8H7.79997C7.56597 6.8 7.36997 6.961 7.31497 7.178L6.81597 9.404H5.76197C5.34997 9.404 5.01597 9.692 5.01597 10.047C5.01597 10.204 5.07997 10.347 5.18797 10.459L7.39597 12.999C7.53197 13.16 7.75197 13.265 7.99997 13.265C8.24797 13.265 8.46797 13.16 8.60397 12.999L10.812 10.459C10.92 10.347 10.984 10.204 10.984 10.047C10.984 9.692 10.65 9.404 10.238 9.404H9.18397ZM11.509 5C11.686 5 11.846 4.895 11.918 4.733C11.989 4.571 11.958 4.382 11.838 4.252C11.446 3.825 11.032 3.374 11.032 3.374C11.032 3.374 10.486 2.699 9.70397 2.699C9.22697 2.699 7.96897 2.696 7.96897 2.696C7.96897 2.696 6.57797 2.699 6.29597 2.699C5.51397 2.699 4.96797 3.374 4.96797 3.374C4.96797 3.374 4.55397 3.825 4.16197 4.252C4.04197 4.382 4.01097 4.571 4.08197 4.733C4.15397 4.895 4.31397 5 4.49097 5H11.509Z" fill="#333333"/>
</svg>
