<svg width="16" height="16" viewBox="0 0 16 16" fill="none" xmlns="http://www.w3.org/2000/svg">
<path fill-rule="evenodd" clip-rule="evenodd" d="M4.41388 7.00001L13.9999 7.00001C14.5519 7.00001 14.9999 7.44801 14.9999 8.00001C14.9999 8.55201 14.5519 9.00001 13.9999 9.00001L4.41388 9.00001L7.02488 11.611C7.41588 12.001 7.41588 12.635 7.02488 13.025C6.63488 13.416 6.00088 13.416 5.61088 13.025L1.30388 8.71901C1.30088 8.71501 1.29688 8.71101 1.29288 8.70701C1.09788 8.51201 0.999878 8.25601 0.999878 8.00001C0.999878 7.74401 1.09788 7.48801 1.29288 7.29301C1.29688 7.28901 1.30088 7.28501 1.30388 7.28101L5.61088 2.97501C6.00088 2.58401 6.63488 2.58401 7.02488 2.97501C7.41588 3.36501 7.41588 3.99901 7.02488 4.38901L4.41388 7.00001Z" fill="#333333"/>
</svg>
