<svg width="16" height="16" viewBox="0 0 16 16" fill="none" xmlns="http://www.w3.org/2000/svg">
<path fill-rule="evenodd" clip-rule="evenodd" d="M3.304 7.28102L6.344 4.24202C6.734 3.85202 7.367 3.85202 7.758 4.24202C8.148 4.63202 8.148 5.26602 7.758 5.65602L6.414 7.00002H12.051C12.603 7.00002 13.051 7.44802 13.051 8.00002C13.051 8.55202 12.603 9.00002 12.051 9.00002H6.414L7.758 10.344C8.148 10.734 8.148 11.368 7.758 11.758C7.367 12.148 6.734 12.148 6.344 11.758L3.304 8.71902C3.301 8.71502 3.297 8.71102 3.293 8.70702C3.098 8.51202 3 8.25602 3 8.00002C3 7.74402 3.098 7.48802 3.293 7.29302C3.297 7.28902 3.301 7.28502 3.304 7.28102Z" fill="#333333"/>
</svg>
