<svg width="16" height="16" viewBox="0 0 16 16" fill="none" xmlns="http://www.w3.org/2000/svg">
<path fill-rule="evenodd" clip-rule="evenodd" d="M7.99999 3C8.25599 3 8.51199 3.098 8.70699 3.293C8.71099 3.297 8.71499 3.301 8.71899 3.304L11.758 6.344C12.148 6.734 12.148 7.367 11.758 7.758C11.368 8.148 10.734 8.148 10.344 7.758L8.99999 6.414V12.051C8.99999 12.603 8.55199 13.051 7.99999 13.051C7.44799 13.051 6.99999 12.603 6.99999 12.051V6.414L5.65599 7.758C5.26599 8.148 4.63199 8.148 4.24199 7.758C3.85199 7.367 3.85199 6.734 4.24199 6.344L7.28099 3.304C7.28499 3.301 7.28899 3.297 7.29299 3.293C7.48799 3.098 7.74399 3 7.99999 3V3Z" fill="#333333"/>
</svg>
