<svg width="16" height="16" viewBox="0 0 16 16" fill="none" xmlns="http://www.w3.org/2000/svg">
<path fill-rule="evenodd" clip-rule="evenodd" d="M7.00001 4.414V14C7.00001 14.552 7.44801 15 8.00001 15C8.55201 15 9.00001 14.552 9.00001 14V4.414L11.611 7.025C12.001 7.416 12.635 7.416 13.025 7.025C13.416 6.635 13.416 6.001 13.025 5.611L8.71901 1.304C8.71501 1.301 8.71101 1.297 8.70701 1.293C8.51201 1.098 8.25601 1 8.00001 1C7.74401 1 7.48801 1.098 7.29301 1.293C7.28901 1.297 7.28501 1.301 7.28101 1.304L2.97501 5.611C2.58401 6.001 2.58401 6.635 2.97501 7.025C3.36501 7.416 3.99901 7.416 4.38901 7.025L7.00001 4.414Z" fill="#333333"/>
</svg>
