<svg width="16" height="16" viewBox="0 0 16 16" fill="none" xmlns="http://www.w3.org/2000/svg">
<path fill-rule="evenodd" clip-rule="evenodd" d="M12.696 7.256L9.65697 4.217C9.26597 3.827 8.63297 3.827 8.24197 4.217C7.85197 4.607 7.85197 5.241 8.24197 5.631L9.58597 6.975H3.94897C3.39797 6.975 2.94897 7.423 2.94897 7.975C2.94897 8.526 3.39797 8.975 3.94897 8.975H9.58597L8.24197 10.318C7.85197 10.709 7.85197 11.342 8.24197 11.733C8.63297 12.123 9.26597 12.123 9.65697 11.733L12.696 8.693C12.7 8.69 12.704 8.686 12.707 8.682C12.903 8.487 13 8.231 13 7.975C13 7.719 12.903 7.463 12.707 7.267C12.704 7.264 12.7 7.26 12.696 7.256Z" fill="#333333"/>
</svg>
