<svg width="16" height="16" viewBox="0 0 16 16" fill="none" xmlns="http://www.w3.org/2000/svg">
<path fill-rule="evenodd" clip-rule="evenodd" d="M11.5859 7.00001L1.99988 7.00001C1.44788 7.00001 0.999878 7.44801 0.999878 8.00001C0.999878 8.55201 1.44788 9.00001 1.99988 9.00001L11.5859 9.00001L8.97488 11.611C8.58388 12.001 8.58388 12.635 8.97488 13.025C9.36488 13.416 9.99888 13.416 10.3889 13.025L14.6959 8.71901C14.6989 8.71501 14.7029 8.71101 14.7069 8.70701C14.9019 8.51201 14.9999 8.25601 14.9999 8.00001C14.9999 7.74401 14.9019 7.48801 14.7069 7.29301C14.7029 7.28901 14.6989 7.28501 14.6959 7.28101L10.3889 2.97501C9.99888 2.58401 9.36488 2.58401 8.97488 2.97501C8.58388 3.36501 8.58388 3.99901 8.97488 4.38901L11.5859 7.00001Z" fill="#333333"/>
</svg>
