<svg width="16" height="16" viewBox="0 0 16 16" fill="none" xmlns="http://www.w3.org/2000/svg">
<path fill-rule="evenodd" clip-rule="evenodd" d="M6.99999 9.58597V3.94897C6.99999 3.39697 7.44799 2.94897 7.99999 2.94897C8.55199 2.94897 8.99999 3.39697 8.99999 3.94897V9.58597L10.344 8.24197C10.734 7.85197 11.368 7.85197 11.758 8.24197C12.148 8.63297 12.148 9.26597 11.758 9.65597L8.71899 12.696C8.71499 12.699 8.71099 12.703 8.70699 12.707C8.51199 12.902 8.25599 13 7.99999 13C7.74399 13 7.48799 12.902 7.29299 12.707C7.28899 12.703 7.28499 12.699 7.28099 12.696L4.24199 9.65597C3.85199 9.26597 3.85199 8.63297 4.24199 8.24197C4.63199 7.85197 5.26599 7.85197 5.65599 8.24197L6.99999 9.58597Z" fill="#333333"/>
</svg>
