<svg width="16" height="16" viewBox="0 0 16 16" fill="none" xmlns="http://www.w3.org/2000/svg">
<path fill-rule="evenodd" clip-rule="evenodd" d="M7.00001 11.586V2C7.00001 1.448 7.44801 1 8.00001 1C8.55201 1 9.00001 1.448 9.00001 2V11.586L11.611 8.975C12.001 8.584 12.635 8.584 13.025 8.975C13.416 9.365 13.416 9.999 13.025 10.389L8.71901 14.696C8.71501 14.699 8.71101 14.703 8.70701 14.707C8.51201 14.902 8.25601 15 8.00001 15C7.74401 15 7.48801 14.902 7.29301 14.707C7.28901 14.703 7.28501 14.699 7.28101 14.696L2.97501 10.389C2.58401 9.999 2.58401 9.365 2.97501 8.975C3.36501 8.584 3.99901 8.584 4.38901 8.975L7.00001 11.586Z" fill="#333333"/>
</svg>
