<svg width="16" height="16" viewBox="0 0 16 16" fill="none" xmlns="http://www.w3.org/2000/svg">
<path fill-rule="evenodd" clip-rule="evenodd" d="M13.97 15H1.96997C1.41797 15 0.969971 14.552 0.969971 14C0.969971 13.448 1.41797 13 1.96997 13H13.97C14.522 13 14.97 13.448 14.97 14C14.97 14.552 14.522 15 13.97 15ZM7.96997 11H1.96997C1.41797 11 0.969971 10.552 0.969971 10C0.969971 9.448 1.41797 9 1.96997 9H7.96997C8.52197 9 8.96997 9.448 8.96997 10C8.96997 10.552 8.52197 11 7.96997 11ZM11.002 4.586V2C11.002 1.448 11.45 1 12.002 1C12.554 1 13.002 1.448 13.002 2V4.585L13.355 4.232C13.745 3.842 14.379 3.842 14.769 4.232C15.159 4.622 15.159 5.256 14.769 5.646L12.709 7.707C12.318 8.097 11.685 8.097 11.295 7.707L9.23397 5.646C8.84397 5.256 8.84397 4.622 9.23397 4.232C9.62397 3.842 10.258 3.842 10.648 4.232L11.002 4.586ZM5.96997 7H1.96997C1.41797 7 0.969971 6.552 0.969971 6C0.969971 5.448 1.41797 5 1.96997 5H5.96997C6.52197 5 6.96997 5.448 6.96997 6C6.96997 6.552 6.52197 7 5.96997 7ZM3.96997 3H1.96997C1.41797 3 0.969971 2.552 0.969971 2C0.969971 1.448 1.41797 1 1.96997 1H3.96997C4.52197 1 4.96997 1.448 4.96997 2C4.96997 2.552 4.52197 3 3.96997 3Z" fill="#333333"/>
</svg>
