<svg xmlns="http://www.w3.org/2000/svg" version="1.1" xmlns:xlink="http://www.w3.org/1999/xlink" xmlns:svgjs="http://svgjs.com/svgjs" width="1440" height="560" preserveAspectRatio="none" viewBox="0 0 1440 560"><g mask="url(&quot;#SvgjsMask1024&quot;)" fill="none"><rect width="1440" height="560" x="0" y="0" fill="rgba(255, 229, 183, 1)"></rect><path d="M0,408.726C91.435,422.919,186.729,459.47,271.612,422.637C360.152,384.217,438.23,303.856,458.926,209.584C479.086,117.755,409.915,33.691,376.273,-54.1C350.331,-121.799,326.869,-187.652,284.234,-246.29C238.172,-309.641,186.21,-366.034,119.556,-407.172C35.164,-459.257,-52.489,-524.246,-151.233,-515.053C-254.629,-505.427,-362.026,-448.251,-412.715,-357.62C-462.408,-268.77,-398.02,-159.901,-406.602,-58.461C-414.469,34.528,-499.466,125.506,-460.774,210.428C-422.085,295.342,-308.049,309.076,-222.337,345.963C-150.138,377.034,-77.671,396.67,0,408.726" fill="#ffdda1"></path><path d="M1440 1024.8020000000001C1525.083 1015.13 1586.478 946.3009999999999 1659.046 900.842 1732.623 854.751 1816.5140000000001 825.038 1869.134 755.979 1929.766 676.406 1997.325 580.784 1977.658 482.696 1957.982 384.55899999999997 1834.028 350.86199999999997 1772.136 272.202 1705.758 187.841 1707.123 30.721000000000004 1602.645 6.08299999999997 1496.296-18.99599999999998 1419.969 113.495 1324.499 166.64100000000002 1253.831 205.97899999999998 1178.134 228.06900000000002 1114.406 277.871 1037.788 337.746 951.0160000000001 393.63800000000003 917.311 484.849 880.593 584.2139999999999 870.223 704.244 922.884 796.159 974.889 886.931 1090.747 912.265 1186.426 954.569 1268.3 990.77 1351.0529999999999 1034.913 1440 1024.8020000000001" fill="#ffedcd"></path></g><defs><mask id="SvgjsMask1024"><rect width="1440" height="560" fill="#ffffff"></rect></mask></defs></svg>