<svg width="16" height="16" viewBox="0 0 16 16" fill="none" xmlns="http://www.w3.org/2000/svg">
<path fill-rule="evenodd" clip-rule="evenodd" d="M12 0C13.104 0 14 0.896 14 2V13C14 14.104 13.104 15 12 15H4C2.896 15 2 14.104 2 13V2C2 0.896 2.896 0 4 0H12ZM5.75 12H4.25C4.112 12 4 12.112 4 12.25V12.75C4 12.888 4.112 13 4.25 13H5.75C5.888 13 6 12.888 6 12.75V12.25C6 12.112 5.888 12 5.75 12ZM9 12.25C9 12.112 8.888 12 8.75 12H7.25C7.112 12 7 12.112 7 12.25V12.75C7 12.888 7.112 13 7.25 13H8.75C8.888 13 9 12.888 9 12.75V12.25ZM11.75 12H10.25C10.112 12 10 12.112 10 12.25V12.75C10 12.888 10.112 13 10.25 13H11.75C11.888 13 12 12.888 12 12.75V12.25C12 12.112 11.888 12 11.75 12ZM12 10.25C12 10.112 11.888 10 11.75 10H10.25C10.112 10 10 10.112 10 10.25V10.75C10 10.888 10.112 11 10.25 11H11.75C11.888 11 12 10.888 12 10.75V10.25ZM8.75 10H7.25C7.112 10 7 10.112 7 10.25V10.75C7 10.888 7.112 11 7.25 11H8.75C8.888 11 9 10.888 9 10.75V10.25C9 10.112 8.888 10 8.75 10ZM6 10.25C6 10.112 5.888 10 5.75 10H4.25C4.112 10 4 10.112 4 10.25V10.75C4 10.888 4.112 11 4.25 11H5.75C5.888 11 6 10.888 6 10.75V10.25ZM5.75 8H4.25C4.112 8 4 8.112 4 8.25V8.75C4 8.888 4.112 9 4.25 9H5.75C5.888 9 6 8.888 6 8.75V8.25C6 8.112 5.888 8 5.75 8ZM9 8.25C9 8.112 8.888 8 8.75 8H7.25C7.112 8 7 8.112 7 8.25V8.75C7 8.888 7.112 9 7.25 9H8.75C8.888 9 9 8.888 9 8.75V8.25ZM11.75 8H10.25C10.112 8 10 8.112 10 8.25V8.75C10 8.888 10.112 9 10.25 9H11.75C11.888 9 12 8.888 12 8.75V8.25C12 8.112 11.888 8 11.75 8ZM12 2.586C12 2.263 11.737 2 11.414 2H4.586C4.263 2 4 2.263 4 2.586V5.414C4 5.737 4.263 6 4.586 6H11.414C11.737 6 12 5.737 12 5.414V2.586Z" fill="#333333"/>
</svg>
