<svg width="16" height="16" viewBox="0 0 16 16" fill="none" xmlns="http://www.w3.org/2000/svg">
<g clip-path="url(#clip0_2929_59)">
<path fill-rule="evenodd" clip-rule="evenodd" d="M2.99804 1.99212V-0.00787354H4.99804V1.99212H10.998V-0.00787354H12.998V1.99212H14.998V15.9921H0.998047V1.99212H2.99804ZM5.99804 10.9921H3.99804V12.9921H5.99804V10.9921ZM8.99803 10.9921H6.99803V12.9921H8.99803V10.9921ZM5.99804 7.99211H3.99804V9.99211H5.99804V7.99211ZM8.99803 7.99211H6.99803V9.99211H8.99803V7.99211ZM11.998 7.99211H9.99803V9.99211H11.998V7.99211ZM8.99803 4.99212H6.99803V6.99211H8.99803V4.99212ZM11.998 4.99212H9.99803V6.99211H11.998V4.99212Z" fill="#333333"/>
</g>
<defs>
<clipPath id="clip0_2929_59">
<rect width="16" height="16" fill="white"/>
</clipPath>
</defs>
</svg>
