<svg width="16" height="16" viewBox="0 0 16 16" fill="none" xmlns="http://www.w3.org/2000/svg">
<path d="M7.99946 12.0753C7.55133 12.0753 7.24108 11.7671 7.24108 11.3219C7.24108 10.8767 7.55133 10.5685 7.99946 10.5685C8.4476 10.5685 8.75784 10.8767 8.75784 11.3219C8.75784 11.7671 8.4476 12.0753 7.99946 12.0753Z" fill="#333333"/>
<path fill-rule="evenodd" clip-rule="evenodd" d="M5 0H3V2H1V16H15V2H13V0H11V2H5V0ZM5 4H3V6H5V4ZM11 4H13V6H11V4ZM2 12.2466C2 12.2466 2.62049 13 3.82701 13C4.93011 13 5.61955 12.3151 5.61955 11.5616C5.61955 10.637 4.68881 10.363 4.68881 10.363C4.68881 10.363 5.44719 10.1233 5.44719 9.33562C5.44719 8.65069 4.79223 8 3.82701 8C2.72391 8 2.17236 8.71918 2.17236 8.71918L2.8618 9.40411C2.8618 9.40411 3.20652 8.92466 3.7236 8.92466C4.13726 8.92466 4.37856 9.16438 4.37856 9.4726C4.37856 9.78082 4.13726 10.0205 3.7236 10.0205H3.24099V10.911H3.79254C4.27515 10.911 4.55092 11.1849 4.55092 11.4932C4.55092 11.8014 4.27515 12.0753 3.7236 12.0753C3.1031 12.0753 2.68944 11.5616 2.68944 11.5616L2 12.2466ZM6.58611 10.1575C6.58611 10.1575 6.17245 10.6712 6.17245 11.3219C6.17245 12.2466 6.93083 13 7.99946 13C9.06809 13 9.82647 12.2466 9.82647 11.3219C9.82647 10.3973 9.06809 9.64384 8.20629 9.64384C8.06841 9.64384 7.96499 9.67808 7.96499 9.67808L8.99915 8.10274H7.93052L6.58611 10.1575ZM12.173 13C10.9665 13 10.346 12.2466 10.346 12.2466L11.0354 11.5616C11.0354 11.5616 11.4491 12.0753 12.0696 12.0753C12.6211 12.0753 12.9314 11.7671 12.9314 11.3562C12.9314 10.9452 12.6211 10.637 12.104 10.637C11.587 10.637 11.3112 11.0137 11.3112 11.0137L10.5873 10.911L10.7596 8.10274H13.6898V9.06164H11.6559L11.6214 9.91781C11.6214 9.91781 11.8972 9.74658 12.3109 9.74658C13.3106 9.74658 14 10.4315 14 11.3562C14 12.2808 13.2761 13 12.173 13Z" fill="#333333"/>
</svg>
