<svg width="16" height="16" viewBox="0 0 16 16" fill="none" xmlns="http://www.w3.org/2000/svg">
<path fill-rule="evenodd" clip-rule="evenodd" d="M6.601 0.693021C7.257 0.516021 7.932 0.908021 8.108 1.56702L8.771 4.05102C8.947 4.71002 8.557 5.38802 7.901 5.56502C7.852 5.57802 7.803 5.58802 7.754 5.59502L6.583 5.83502C6.583 5.83502 5.881 5.93802 5.899 6.64102C5.92 7.53102 7.402 10.109 8.159 10.573C8.757 10.939 9.196 10.38 9.196 10.38L9.989 9.48202C10.02 9.44302 10.053 9.40602 10.088 9.37002C10.569 8.88802 11.348 8.88802 11.829 9.37002L13.64 11.189C14.12 11.671 14.12 12.454 13.64 12.936C13.64 12.936 12.558 14.069 11.215 14.892C9.601 15.882 8.06 14.994 7.572 14.748C6.424 14.167 4.845 12.317 3.801 10.535L3.752 10.45C2.737 8.65102 1.932 6.35202 2.005 5.06502C2.036 4.51702 2.041 2.73302 3.701 1.82402C5.083 1.06702 6.601 0.693021 6.601 0.693021Z" fill="#333333"/>
</svg>
