<svg width="16" height="16" viewBox="0 0 16 16" fill="none" xmlns="http://www.w3.org/2000/svg">
<path fill-rule="evenodd" clip-rule="evenodd" d="M8 0C12.415 0 16 3.585 16 8C16 12.415 12.415 16 8 16C3.585 16 0 12.415 0 8C0 3.585 3.585 0 8 0ZM8 2C11.311 2 14 4.689 14 8C14 11.311 11.311 14 8 14C4.689 14 2 11.311 2 8C2 4.689 4.689 2 8 2ZM7.148 3.269C7.185 3.247 7.225 3.23 7.268 3.219C7.533 3.148 7.806 3.305 7.877 3.57L8.392 5.492C8.463 5.757 8.305 6.03 8.04 6.101C8.028 6.104 8.016 6.107 8.005 6.109L7.372 6.254C7.372 6.254 6.844 6.383 6.868 6.797C6.901 7.39 7.423 8.238 7.423 8.238C7.424 8.24 7.897 9.115 8.393 9.44C8.741 9.668 9.116 9.275 9.116 9.275L9.558 8.8C9.566 8.79 9.574 8.782 9.583 8.773C9.777 8.579 10.092 8.579 10.286 8.773L11.693 10.179C11.887 10.373 11.887 10.689 11.693 10.883C11.661 10.914 11.626 10.941 11.59 10.962C11.59 10.962 10.885 11.369 10.075 11.836C9.265 12.304 8.933 11.988 8.643 11.841C7.956 11.495 6.932 10.737 5.965 9.08C5.968 9.078 5.971 9.077 5.975 9.075C5.971 9.077 5.968 9.078 5.965 9.08C5.014 7.414 4.869 6.148 4.913 5.381C4.931 5.057 4.823 4.611 5.633 4.143C6.443 3.676 7.148 3.268 7.148 3.268V3.269Z" fill="#333333"/>
</svg>
