<svg width="16" height="16" viewBox="0 0 16 16" fill="none" xmlns="http://www.w3.org/2000/svg">
<path fill-rule="evenodd" clip-rule="evenodd" d="M5.5 12C6.328 12 7 12.672 7 13.5C7 14.328 6.328 15 5.5 15C4.672 15 4 14.328 4 13.5C4 12.672 4.672 12 5.5 12ZM11.5 12C12.328 12 13 12.672 13 13.5C13 14.328 12.328 15 11.5 15C10.672 15 10 14.328 10 13.5C10 12.672 10.672 12 11.5 12ZM3.5 1C4.604 1 5.5 1.896 5.5 3H13.486C14.589 3 15 3.445 15 4.549V7C15 8.104 13.998 8.707 13 9L5.5 11C4.529 11.181 4.173 10.673 4 9.615L3 3H2C1.448 3 1 2.552 1 2C1 1.448 1.448 1 2 1H3.5Z" fill="#333333"/>
</svg>
