<svg width="16" height="16" viewBox="0 0 16 16" fill="none" xmlns="http://www.w3.org/2000/svg">
<path fill-rule="evenodd" clip-rule="evenodd" d="M1.364 12.273C2.116 12.273 2.727 12.884 2.727 13.636C2.727 14.389 2.116 15 1.364 15C0.611 15 0 14.389 0 13.636C0 12.884 0.611 12.273 1.364 12.273ZM2.621 3C2.35 3 2.119 3.174 2.035 3.416C2.034 3.417 2.034 3.418 2.033 3.42C1.865 3.901 1.373 4.191 0.871 4.105C0.368 4.02 0 3.584 0 3.074C0 3.026 0 3 0 3C0 1.896 0.896 1 2 1H14C15.104 1 16 1.896 16 3V13C16 14.104 15.104 15 14 15H12C12 15 11.993 15 11.979 14.999C11.446 14.986 11.017 14.555 11.006 14.021C10.996 13.487 11.407 13.039 11.94 13.004C11.98 13.001 12 13 12 13H13.38C13.722 13 14 12.722 14 12.379V3.621C14 3.278 13.722 3 13.38 3H2.621ZM0.895 8.659C1.045 8.646 1.196 8.639 1.35 8.639C4.109 8.639 6.35 10.879 6.35 13.639C6.35 13.792 6.343 13.943 6.329 14.093C6.329 14.093 6.321 14.144 6.305 14.239C6.228 14.705 5.807 15.035 5.335 14.997C4.864 14.959 4.501 14.566 4.499 14.094V14.093C4.521 13.945 4.532 13.793 4.532 13.639C4.532 11.883 3.106 10.457 1.35 10.457C1.195 10.457 1.044 10.468 0.895 10.489C0.425 10.478 0.041 10.11 0.008 9.641C-0.024 9.172 0.306 8.755 0.77 8.68C0.852 8.666 0.895 8.659 0.895 8.659ZM0.937 6.827C0.439 6.847 0.02 6.459 0.001 5.961C-0.019 5.464 0.369 5.045 0.866 5.025C0.988 5.013 1.052 5.007 1.053 5.007C1.151 5.004 1.25 5.002 1.35 5.002C6.116 5.002 9.986 8.872 9.986 13.639C9.986 13.791 9.982 13.943 9.974 14.093C9.974 14.093 9.974 14.095 9.974 14.097C9.947 14.582 9.547 14.96 9.062 14.959C8.577 14.958 8.177 14.578 8.153 14.094V14.093C8.163 13.943 8.168 13.791 8.168 13.639C8.168 9.876 5.113 6.821 1.35 6.821C1.249 6.821 1.149 6.823 1.049 6.827C1.049 6.827 1.01 6.827 0.937 6.827Z" fill="#333333"/>
</svg>
