<svg width="16" height="16" viewBox="0 0 16 16" fill="none" xmlns="http://www.w3.org/2000/svg">
<path fill-rule="evenodd" clip-rule="evenodd" d="M7.988 0C12.396 0 15.976 3.58 15.976 7.988C15.976 12.396 12.396 15.976 7.988 15.976C3.58 15.976 0 12.396 0 7.988C0 3.58 3.58 0 7.988 0ZM7.988 1.976C11.306 1.976 14 4.67 14 7.988C14 11.306 11.306 14 7.988 14C4.67 14 1.976 11.306 1.976 7.988C1.976 4.67 4.67 1.976 7.988 1.976ZM7.988 6.565L9.761 4.792C10.154 4.399 10.791 4.399 11.184 4.792C11.577 5.185 11.577 5.822 11.184 6.215L9.411 7.988L11.153 9.73C11.545 10.123 11.545 10.76 11.153 11.153C10.76 11.545 10.123 11.545 9.73 11.153L7.988 9.411L6.215 11.184C5.822 11.577 5.185 11.577 4.792 11.184C4.399 10.791 4.399 10.154 4.792 9.761L6.565 7.988L4.823 6.246C4.431 5.853 4.431 5.216 4.823 4.823C5.216 4.431 5.853 4.431 6.246 4.823L7.988 6.565Z" fill="#333333"/>
</svg>
