<svg width="16" height="16" viewBox="0 0 16 16" fill="none" xmlns="http://www.w3.org/2000/svg">
<path fill-rule="evenodd" clip-rule="evenodd" d="M7.988 0C12.396 0 15.976 3.58 15.976 7.988C15.976 12.396 12.396 15.976 7.988 15.976C3.58 15.976 0 12.396 0 7.988C0 3.58 3.58 0 7.988 0ZM7.988 6.565L6.173 4.75C5.781 4.358 5.143 4.358 4.75 4.75C4.358 5.143 4.358 5.781 4.75 6.173L6.565 7.988L4.757 9.796C4.365 10.188 4.365 10.826 4.757 11.219C5.15 11.611 5.788 11.611 6.18 11.219L7.988 9.411L9.803 11.226C10.195 11.618 10.833 11.618 11.226 11.226C11.618 10.833 11.618 10.195 11.226 9.803L9.411 7.988L11.219 6.18C11.611 5.788 11.611 5.15 11.219 4.757C10.826 4.365 10.188 4.365 9.796 4.757L7.988 6.565Z" fill="#333333"/>
</svg>
