<svg width="16" height="16" viewBox="0 0 16 16" fill="none" xmlns="http://www.w3.org/2000/svg">
<path fill-rule="evenodd" clip-rule="evenodd" d="M7 12.616L6.616 12.233C6.226 11.842 5.592 11.842 5.202 12.233C4.812 12.623 4.812 13.257 5.202 13.647L7.262 15.707C7.465 15.91 7.734 16.008 8 16C8.266 16.008 8.535 15.91 8.738 15.707L10.798 13.647C11.188 13.257 11.188 12.623 10.798 12.233C10.408 11.842 9.774 11.842 9.384 12.233L9 12.616V10C9 9.448 8.552 9 8 9C7.448 9 7 9.448 7 10V12.616ZM3.142 12.998C1.399 12.944 0 11.512 0 9.756C0 8.445 0.779 7.315 1.898 6.803C1.726 6.404 1.63 5.964 1.63 5.502C1.63 3.688 3.103 2.215 4.917 2.215C5.092 2.215 5.265 2.229 5.433 2.256C6.119 0.917 7.513 0 9.12 0C11.405 0 13.261 1.855 13.261 4.141C13.261 4.31 13.251 4.477 13.231 4.64C14.85 5.265 16 6.837 16 8.676C16 10.657 14.664 12.329 12.845 12.84C12.829 12.194 12.575 11.553 12.082 11.061C11.668 10.646 11.148 10.401 10.609 10.324V9.609C10.609 8.169 9.44 7 8 7C6.56 7 5.391 8.169 5.391 9.609V10.322C4.847 10.396 4.322 10.643 3.904 11.061C3.371 11.593 3.117 12.3 3.142 12.998Z" fill="#333333"/>
</svg>
