<svg width="16" height="16" viewBox="0 0 16 16" fill="none" xmlns="http://www.w3.org/2000/svg">
<path fill-rule="evenodd" clip-rule="evenodd" d="M7 12.384L6.616 12.767C6.226 13.158 5.592 13.158 5.202 12.767C4.812 12.377 4.812 11.743 5.202 11.353L7.262 9.29299C7.465 9.08999 7.734 8.99199 8 8.99999C8.266 8.99199 8.535 9.08999 8.738 9.29299L10.798 11.353C11.188 11.743 11.188 12.377 10.798 12.767C10.408 13.158 9.774 13.158 9.384 12.767L9 12.384V15C9 15.552 8.552 16 8 16C7.448 16 7 15.552 7 15V12.384ZM3.302 13.002C3.283 13.003 3.264 13.003 3.244 13.003C1.454 13.003 0 11.549 0 9.75799C0 8.44799 0.779 7.31799 1.898 6.80599C1.726 6.40699 1.63 5.96699 1.63 5.50499C1.63 3.69099 3.103 2.21799 4.917 2.21799C5.092 2.21799 5.265 2.23199 5.433 2.25799C6.119 0.919991 7.513 0.00299072 9.12 0.00299072C11.405 0.00299072 13.261 1.85799 13.261 4.14399C13.261 4.31299 13.251 4.47899 13.231 4.64299C14.85 5.26799 16 6.83999 16 8.67899C16 10.703 14.606 12.404 12.727 12.874C13.007 11.977 12.792 10.959 12.082 10.25L9.844 8.01199C9.537 7.70399 9.171 7.48999 8.782 7.36799C8.54 7.29199 8.282 7.24999 8.015 7.24799H8H7.999H7.993C7.323 7.24699 6.653 7.50099 6.142 8.01199L3.904 10.25C3.16 10.994 2.96 12.076 3.302 13.002Z" fill="#333333"/>
</svg>
