<svg width="16" height="16" viewBox="0 0 16 16" fill="none" xmlns="http://www.w3.org/2000/svg">
<path fill-rule="evenodd" clip-rule="evenodd" d="M13.5 16H12.5C12.224 16 12 15.776 12 15.5V14H10.5C10.224 14 10 13.776 10 13.5V12.5C10 12.224 10.224 12 10.5 12H12V10.5C12 10.224 12.224 10 12.5 10H13.5C13.776 10 14 10.224 14 10.5V12H15.5C15.776 12 16 12.224 16 12.5V13.5C16 13.776 15.776 14 15.5 14H14V15.5C14 15.776 13.776 16 13.5 16ZM8.084 13.918C7.841 13.972 7.588 14 7.329 14C6.548 14 5.826 13.743 5.244 13.31C4.693 13.742 3.998 14 3.244 14C1.454 14 0 12.546 0 10.756C0 9.445 0.779 8.315 1.898 7.803C1.726 7.404 1.63 6.964 1.63 6.502C1.63 4.688 3.103 3.215 4.917 3.215C5.092 3.215 5.265 3.229 5.433 3.256C6.119 1.917 7.513 1 9.12 1C11.405 1 13.261 2.855 13.261 5.141C13.261 5.31 13.251 5.477 13.231 5.64C14.634 6.182 15.685 7.435 15.94 8.957C15.115 8.355 14.099 8 13 8C10.24 8 8 10.24 8 13C8 13.314 8.029 13.621 8.084 13.918Z" fill="#333333"/>
</svg>
