<svg width="16" height="16" viewBox="0 0 16 16" fill="none" xmlns="http://www.w3.org/2000/svg">
<path fill-rule="evenodd" clip-rule="evenodd" d="M15 14C15 14.55 14.552 15 14 15C13.726 15 13.478 14.89 13.297 14.71H13.296H13.293L13.29 14.7L11.586 13H3C1.896 13 1 12.1 1 11V3C1 1.9 1.896 1 3 1H13C14.104 1 15 1.9 15 3V14ZM5 6C5.552 6 6 6.45 6 7C6 7.55 5.552 8 5 8C4.448 8 4 7.55 4 7C4 6.45 4.448 6 5 6ZM8 6C8.552 6 9 6.45 9 7C9 7.55 8.552 8 8 8C7.448 8 7 7.55 7 7C7 6.45 7.448 6 8 6ZM11 6C11.552 6 12 6.45 12 7C12 7.55 11.552 8 11 8C10.448 8 10 7.55 10 7C10 6.45 10.448 6 11 6Z" fill="#333333"/>
</svg>
