<svg width="16" height="16" viewBox="0 0 16 16" fill="none" xmlns="http://www.w3.org/2000/svg">
<path fill-rule="evenodd" clip-rule="evenodd" d="M7.552 2.202V1C7.552 0.448 8 0 8.552 0C9.104 0 9.552 0.448 9.552 1V2.93L12.335 3.943C12.679 4.068 12.912 4.362 12.976 4.697C12.991 4.759 12.999 4.823 12.999 4.889V5.597L15.886 10.596C15.97 10.743 16.006 10.904 15.999 11.061V12.064C16 12.08 16 12.095 16 12.111V12.132C15.986 13.963 14.199 15.444 12 15.444C9.792 15.444 8 13.951 8 12.111V12.104V11C7.999 10.854 8.036 10.707 8.114 10.572L10.994 5.583L5.587 3.615L7.885 7.596C7.97 7.743 8.006 7.904 7.999 8.061V9.064C7.999 9.08 8 9.095 8 9.111V9.132C7.986 10.963 6.199 12.444 4 12.444C1.792 12.444 0 10.951 0 9.111V9.104V8C0 7.854 0.036 7.707 0.114 7.572L3 2.574V1.944C3 1.834 3.022 1.729 3.063 1.632C3.252 1.114 3.826 0.846 4.345 1.035L7.552 2.202ZM11.991 7.885C11.774 7.883 11.574 7.998 11.465 8.185C11.013 8.969 9.84 11 9.84 11H14.146C14.146 11 12.969 8.963 12.52 8.185C12.414 8.001 12.219 7.887 12.007 7.885C12.002 7.885 11.996 7.885 11.991 7.885ZM3.983 4.831C3.787 4.834 3.608 4.939 3.51 5.109C3.066 5.877 1.84 8 1.84 8H6.145C6.145 8 4.926 5.889 4.476 5.11C4.375 4.934 4.186 4.827 3.984 4.831C3.983 4.831 3.983 4.831 3.983 4.831Z" fill="#333333"/>
</svg>
