<svg width="16" height="16" viewBox="0 0 16 16" fill="none" xmlns="http://www.w3.org/2000/svg">
<path fill-rule="evenodd" clip-rule="evenodd" d="M3 3V1C3 0.448 3.448 0 4 0C4.552 0 5 0.448 5 1V11H15C15.552 11 16 11.448 16 12C16 12.552 15.552 13 15 13H13V15C13 15.552 12.552 16 12 16C11.448 16 11 15.552 11 15V13H4C3.448 13 3 12.552 3 12V5H1C0.448 5 0 4.552 0 4C0 3.448 0.448 3 1 3H3ZM12 3C12.276 3 12.525 3.112 12.706 3.292L12.708 3.294C12.888 3.475 13 3.724 13 4V9C13 9.552 12.552 10 12 10C11.448 10 11 9.552 11 9V5H7C6.448 5 6 4.552 6 4C6 3.448 6.448 3 7 3H12Z" fill="#333333"/>
</svg>
