<svg width="16" height="16" viewBox="0 0 16 16" fill="none" xmlns="http://www.w3.org/2000/svg">
<path fill-rule="evenodd" clip-rule="evenodd" d="M5 14C5.381 14 6.589 14 7 14C7.096 14.001 7.195 14.008 7.259 14.026C7.385 14.06 7.505 14.118 7.609 14.198C7.695 14.265 7.771 14.345 7.831 14.436C8.067 14.788 8.051 15.264 7.793 15.6C7.714 15.704 7.613 15.792 7.5 15.858C7.365 15.935 7.223 15.982 7.073 15.996C7.047 15.998 7.026 16 7 16C6.627 16.001 5.462 16 5 16C4.934 15.998 4.87 15.985 4.805 15.972C4.676 15.947 4.553 15.896 4.444 15.823C4.354 15.762 4.273 15.687 4.207 15.6C3.991 15.32 3.941 14.936 4.076 14.609C4.11 14.528 4.154 14.452 4.207 14.383C4.286 14.279 4.387 14.191 4.5 14.126C4.635 14.048 4.87 14 5 14ZM4 3C4.002 1.898 4.897 1 6 1H12C13.104 1 14 1.896 14 3V10.992C14 12.095 13.11 12.992 12.006 12.992H12V14C12 14.398 12 14.662 12 14.992C11.996 15.102 11.983 15.208 11.947 15.313C11.855 15.584 11.647 15.806 11.383 15.915C11.28 15.958 11.153 15.99 11 16C10.814 16 10.262 16 10 16C9.845 15.995 9.697 15.957 9.558 15.888C9.44 15.83 9.335 15.749 9.248 15.651C9.191 15.585 9.142 15.512 9.103 15.434C8.947 15.116 8.972 14.73 9.169 14.436C9.229 14.345 9.305 14.265 9.391 14.198C9.513 14.105 9.655 14.041 9.805 14.011C9.87 13.998 9.934 13.994 10 13.992C10 13.99 10 13.988 10 13.986V13H6C4.896 13 4 12.095 4 10.992V5H3L2.998 5.057C2.991 5.123 2.983 5.186 2.966 5.25C2.932 5.377 2.873 5.496 2.793 5.6C2.727 5.687 2.646 5.762 2.556 5.823C2.39 5.933 2.198 5.989 2.006 5.989H1.996C1.781 5.988 1.567 5.92 1.391 5.785C1.287 5.705 1.199 5.605 1.134 5.492C1.056 5.357 1.017 5.211 1.002 5.057C1.001 4.676 1.001 4.38 1 3.992C1.004 3.881 1.017 3.775 1.053 3.67C1.145 3.399 1.353 3.177 1.617 3.068C1.72 3.025 1.864 3 1.992 3C2.194 3 2.738 3.003 2.992 3H4ZM2.006 11.992C2.021 11.992 2.037 11.993 2.065 11.994C2.175 12.004 2.28 12.025 2.383 12.068C2.647 12.177 2.855 12.399 2.947 12.67C2.975 12.754 2.989 12.838 2.998 12.926C2.999 13.679 2.999 14.169 3 15.001C2.998 15.067 2.994 15.131 2.981 15.196C2.955 15.325 2.904 15.448 2.831 15.557C2.771 15.647 2.695 15.728 2.609 15.795C2.435 15.927 2.223 15.998 2.009 16H2.001C1.871 16 1.74 15.976 1.617 15.925C1.537 15.892 1.46 15.848 1.391 15.795C1.287 15.715 1.199 15.615 1.134 15.501C1.056 15.366 1.002 15.177 1.002 15.067C1.001 14.335 1.001 13.642 1 12.992C1.004 12.881 1.017 12.775 1.053 12.67C1.145 12.399 1.353 12.177 1.617 12.068C1.72 12.025 1.825 12.004 1.935 11.994C1.968 11.993 1.984 11.992 2 11.992H2.006ZM2.006 6.992C2.021 6.992 2.037 6.993 2.065 6.994C2.175 7.004 2.28 7.025 2.383 7.068C2.647 7.177 2.855 7.399 2.947 7.67C2.975 7.754 2.989 7.838 2.998 7.926C2.999 8.629 2.999 9.211 3 9.992C2.998 10.058 2.994 10.122 2.981 10.187C2.955 10.315 2.904 10.438 2.831 10.547C2.783 10.62 2.725 10.686 2.659 10.743C2.476 10.904 2.24 10.99 2.001 10.991H1.993C1.887 10.99 1.781 10.973 1.679 10.938C1.575 10.903 1.478 10.851 1.391 10.785C1.287 10.705 1.199 10.605 1.134 10.492C1.056 10.357 1.017 10.211 1.002 10.057C1.001 9.302 1.001 8.739 1 7.992C1.004 7.881 1.017 7.775 1.053 7.67C1.145 7.399 1.353 7.177 1.617 7.068C1.72 7.025 1.825 7.004 1.935 6.994C1.968 6.993 1.984 6.992 2 6.992H2.006ZM8.5 7.992H6.5C6.224 7.992 6 8.216 6 8.492C6 8.768 6.224 8.992 6.5 8.992H8.5C8.776 8.992 9 8.768 9 8.492C9 8.216 8.776 7.992 8.5 7.992ZM12 6.492C12 6.216 11.776 5.992 11.5 5.992H6.5C6.224 5.992 6 6.216 6 6.492C6 6.768 6.224 6.992 6.5 6.992H11.5C11.776 6.992 12 6.768 12 6.492ZM11.5 3.992H6.5C6.224 3.992 6 4.216 6 4.492C6 4.768 6.224 4.992 6.5 4.992H11.5C11.776 4.992 12 4.768 12 4.492C12 4.216 11.776 3.992 11.5 3.992Z" fill="#333333"/>
</svg>
