<svg width="16" height="16" viewBox="0 0 16 16" fill="none" xmlns="http://www.w3.org/2000/svg">
<path fill-rule="evenodd" clip-rule="evenodd" d="M12.34 6C12.468 6 12.59 6.052 12.677 6.145C12.765 6.238 12.811 6.362 12.804 6.489C12.715 8.105 12.437 13.168 12.437 13.168C12.437 14.272 11.523 15.008 10.419 15.008H5.451C4.348 15.008 3.434 14.322 3.434 13.218C3.434 13.218 3.103 8.122 2.998 6.494C2.989 6.366 3.035 6.24 3.122 6.147C3.21 6.053 3.333 6 3.461 6C5.148 6 10.661 6 12.34 6ZM2.031 5C1.739 5.001 1.502 4.766 1.5 4.475C1.501 4.471 1.501 4.467 1.501 4.463C1.501 4.049 1.752 3.694 2.109 3.541C2.564 3.3 3.79 3.102 5.401 2.999V1.41C5.401 0.632 6.033 0 6.811 0H8.995C9.773 0 10.405 0.632 10.405 1.41V2.999C12.016 3.102 13.242 3.3 13.697 3.541C14.054 3.694 14.305 4.049 14.305 4.463C14.305 4.76 14.065 5 13.768 5C11.916 5 3.866 5 2.031 5ZM8.602 1.593H7.204C7.038 1.593 6.903 1.728 6.903 1.894V2.935C7.228 2.928 7.562 2.924 7.903 2.924C8.244 2.924 8.578 2.928 8.903 2.935V1.894C8.903 1.728 8.768 1.593 8.602 1.593Z" fill="#333333"/>
</svg>
