<svg width="16" height="16" viewBox="0 0 16 16" fill="none" xmlns="http://www.w3.org/2000/svg">
<path fill-rule="evenodd" clip-rule="evenodd" d="M3.97201 13C4.52401 13 4.97201 13.448 4.97201 14C4.97201 14.552 4.52401 15 3.97201 15H2.00201C1.45001 15 1.00201 14.552 1.00201 14C1.00201 13.448 1.45001 13 2.00201 13H3.97201ZM11.002 11.586V9C11.002 8.448 11.45 8 12.002 8C12.554 8 13.002 8.448 13.002 9V11.585L13.355 11.232C13.745 10.842 14.379 10.842 14.769 11.232C15.159 11.622 15.159 12.256 14.769 12.646L12.722 14.694C12.717 14.698 12.713 14.703 12.709 14.707C12.514 14.902 12.258 15 12.002 15C11.746 15 11.49 14.902 11.295 14.707C11.29 14.703 11.286 14.698 11.282 14.694L9.23401 12.646C8.84401 12.256 8.84401 11.622 9.23401 11.232C9.62501 10.842 10.258 10.842 10.648 11.232L11.002 11.586ZM6.00201 9C6.55401 9 7.00201 9.448 7.00201 10C7.00201 10.552 6.55401 11 6.00201 11H2.00201C1.45001 11 1.00201 10.552 1.00201 10C1.00201 9.448 1.45001 9 2.00201 9H6.00201ZM8.94201 5C9.49401 5 9.94201 5.448 9.94201 6C9.94201 6.552 9.49401 7 8.94201 7H2.00201C1.45001 7 1.00201 6.552 1.00201 6C1.00201 5.448 1.45001 5 2.00201 5H8.94201ZM14.002 1C14.554 1 15.002 1.448 15.002 2C15.002 2.552 14.554 3 14.002 3H2.00201C1.45001 3 1.00201 2.552 1.00201 2C1.00201 1.448 1.45001 1 2.00201 1H14.002Z" fill="#333333"/>
</svg>
