<svg width="16" height="16" viewBox="0 0 16 16" fill="none" xmlns="http://www.w3.org/2000/svg">
<path fill-rule="evenodd" clip-rule="evenodd" d="M8.875 2.00002C8.878 2.00002 10.391 1.97402 11.155 2.63502C11.98 3.34902 12 4.62502 12 4.62502V8.03702C12 8.03702 12.003 9.92202 11.246 10.793C10.489 11.665 8.815 12.679 8.286 13.407C7.757 14.136 7.452 15.129 6.614 15.129C5.777 15.129 5.375 14.608 5.375 13.818C5.375 13.441 5.724 12.674 5.724 11.625C5.724 11.217 5.384 11 4.831 11H3C1.737 11 1 10.229 1 9.00002C1 8.34702 1.359 7.77702 1.889 7.47602C1.88 7.40202 1.875 7.32702 1.875 7.25002C1.875 6.59702 2.234 6.02702 2.765 5.72602C2.755 5.65202 2.75 5.57702 2.75 5.50002C2.75 4.84702 3.109 4.27702 3.64 3.97602C3.63 3.90202 3.625 3.82702 3.625 3.75002C3.625 2.78402 4.409 2.00002 5.375 2.00002H6.25H8.875ZM13 9.43802C13 10.162 13.276 10.75 14 10.75C14.724 10.75 15 10.162 15 9.43802V3.31302C15 2.58802 14.724 2.00002 14 2.00002C13.276 2.00002 13 2.58802 13 3.31302V9.43802Z" fill="#333333"/>
</svg>
