<svg width="16" height="16" viewBox="0 0 16 16" fill="none" xmlns="http://www.w3.org/2000/svg">
<path fill-rule="evenodd" clip-rule="evenodd" d="M14 15H2C1.448 15 1 14.552 1 14V12C1 11.448 1.448 11 2 11H14C14.552 11 15 11.448 15 12V14C15 14.552 14.552 15 14 15ZM7 12C7.552 12 8 12.448 8 13C8 13.552 7.552 14 7 14C6.448 14 6 13.552 6 13C6 12.448 6.448 12 7 12ZM4 12C4.552 12 5 12.448 5 13C5 13.552 4.552 14 4 14C3.448 14 3 13.552 3 13C3 12.448 3.448 12 4 12ZM14 10H2C1.448 10 1 9.552 1 9V7C1 6.448 1.448 6 2 6H14C14.552 6 15 6.448 15 7V9C15 9.552 14.552 10 14 10ZM4 7C4.552 7 5 7.448 5 8C5 8.552 4.552 9 4 9C3.448 9 3 8.552 3 8C3 7.448 3.448 7 4 7ZM7 7C7.552 7 8 7.448 8 8C8 8.552 7.552 9 7 9C6.448 9 6 8.552 6 8C6 7.448 6.448 7 7 7ZM14 5H2C1.448 5 1 4.552 1 4V2C1 1.448 1.448 1 2 1H14C14.552 1 15 1.448 15 2V4C15 4.552 14.552 5 14 5ZM4 2C4.552 2 5 2.448 5 3C5 3.552 4.552 4 4 4C3.448 4 3 3.552 3 3C3 2.448 3.448 2 4 2ZM7 2C7.552 2 8 2.448 8 3C8 3.552 7.552 4 7 4C6.448 4 6 3.552 6 3C6 2.448 6.448 2 7 2Z" fill="#333333"/>
</svg>
