<svg width="16" height="16" viewBox="0 0 16 16" fill="none" xmlns="http://www.w3.org/2000/svg">
<path fill-rule="evenodd" clip-rule="evenodd" d="M7.627 13.203L11.864 8.966L14.034 11.136L10.882 14.288L9.797 15.373C9.796 15.374 9.554 15.598 9.085 15.687C8.417 15.813 7.931 15.904 7.464 15.993C7.331 16.018 7.196 15.975 7.104 15.896C7.025 15.804 6.982 15.669 7.007 15.536C7.096 15.069 7.187 14.583 7.313 13.915C7.402 13.447 7.625 13.205 7.627 13.203ZM5.544 14H3C1.896 14 1 13.104 1 12V2C1 0.896 1.896 0 3 0H11C12.104 0 13 0.896 13 2V5.077L11.318 6.758L10.889 7.187C10.798 7.073 10.657 7 10.5 7H3.5C3.224 7 3 7.224 3 7.5C3 7.776 3.224 8 3.5 8H10.076C8.707 9.368 7.422 10.653 6.859 11.217C6.562 11.514 6.384 11.693 6.385 11.694C6.381 11.698 5.876 12.246 5.676 13.305L5.544 14ZM14.551 7.188C14.3 6.937 13.893 6.937 13.642 7.188L12.786 8.044L14.956 10.214L15.812 9.358C16.063 9.107 16.063 8.7 15.812 8.449L14.551 7.188ZM7.5 9H3.5C3.224 9 3 9.224 3 9.5C3 9.776 3.224 10 3.5 10H7.5C7.776 10 8 9.776 8 9.5C8 9.224 7.776 9 7.5 9ZM10.5 5H3.5C3.224 5 3 5.224 3 5.5C3 5.776 3.224 6 3.5 6H10.5C10.776 6 11 5.776 11 5.5C11 5.224 10.776 5 10.5 5ZM10.5 3H3.5C3.224 3 3 3.224 3 3.5C3 3.776 3.224 4 3.5 4H10.5C10.776 4 11 3.776 11 3.5C11 3.224 10.776 3 10.5 3Z" fill="#333333"/>
</svg>
