<svg width="16" height="16" viewBox="0 0 16 16" fill="none" xmlns="http://www.w3.org/2000/svg">
<path fill-rule="evenodd" clip-rule="evenodd" d="M12.5941 7.50282L8.85707 11.5272C8.65731 11.7233 8.35768 11.9195 7.95816 11.9195C7.66817 11.9195 7.44254 11.7645 7.26423 11.642C7.19688 11.5957 7.13628 11.5541 7.08151 11.5272L3.28381 7.45081L3.18393 7.35272C3.08405 7.15654 2.98417 6.96036 2.98417 6.76419C2.98417 6.27375 3.38369 5.88139 3.88309 5.88139H5.98052L5.9675 2.00627C5.9675 1.51583 6.4669 1.02539 6.9663 1.02539L9.02793 1C9.52733 1 10.0267 1.49044 10.0267 1.98088V5.88139L12.0947 5.93341C12.5941 5.93341 12.9936 6.32577 12.9936 6.81621C12.9936 7.01238 12.7939 7.30665 12.5941 7.50282ZM3 13C2.44772 13 2 13.4477 2 14C2 14.5523 2.44772 15 3 15H13C13.5523 15 14 14.5523 14 14C14 13.4477 13.5523 13 13 13H3Z" fill="#333333"/>
</svg>
