<svg width="16" height="16" viewBox="0 0 16 16" fill="none" xmlns="http://www.w3.org/2000/svg">
<path fill-rule="evenodd" clip-rule="evenodd" d="M3 6V14H13V6H12C11.448 6 11 5.552 11 5C11 4.448 11.448 4 12 4H14C14.552 4 15 4.448 15 5V15C15 15.225 14.925 15.433 14.8 15.6C14.617 15.843 14.327 16 14 16H2C1.673 16 1.383 15.843 1.201 15.6C1.075 15.433 1 15.225 1 15V5C1 4.448 1.448 4 2 4H4C4.552 4 5 4.448 5 5C5 5.552 4.552 6 4 6H3ZM7 9.585V2C7 1.448 7.448 1 8 1C8.552 1 9 1.448 9 2V9.585L10 8.585C10.391 8.195 11.024 8.195 11.415 8.585C11.805 8.976 11.805 9.609 11.415 10L8.707 12.707C8.7 12.714 8.693 12.721 8.686 12.728L8.684 12.729L8.679 12.734L8.658 12.753C8.645 12.765 8.631 12.776 8.616 12.788L8.596 12.803C8.583 12.813 8.57 12.822 8.557 12.831L8.555 12.832L8.554 12.833C8.514 12.859 8.474 12.882 8.432 12.902L8.427 12.905L8.424 12.906C8.41 12.912 8.396 12.919 8.382 12.925L8.376 12.927C8.374 12.928 8.373 12.928 8.371 12.929L8.365 12.931L8.348 12.938L8.342 12.94C8.329 12.945 8.317 12.949 8.304 12.953C8.225 12.978 8.144 12.993 8.063 12.998C8.058 12.999 8.053 12.999 8.048 12.999C8.034 13 8.02 13 8.006 13H8C7.984 13 7.968 13 7.952 12.999C7.947 12.999 7.942 12.999 7.937 12.998C7.86 12.993 7.784 12.98 7.709 12.957H7.708L7.704 12.956L7.698 12.954C7.692 12.952 7.686 12.95 7.681 12.948L7.675 12.946C7.664 12.943 7.654 12.939 7.644 12.935L7.624 12.927L7.618 12.925C7.61 12.922 7.603 12.918 7.596 12.915L7.59 12.913C7.585 12.91 7.58 12.908 7.576 12.906C7.564 12.9 7.552 12.895 7.54 12.889L7.539 12.888C7.508 12.872 7.479 12.854 7.449 12.835L7.445 12.832L7.442 12.83C7.422 12.817 7.403 12.803 7.384 12.788L7.379 12.784C7.359 12.768 7.339 12.751 7.32 12.733L7.316 12.729L7.313 12.727L7.311 12.725L7.309 12.722C7.303 12.717 7.298 12.712 7.293 12.707L4.585 10C4.195 9.609 4.195 8.976 4.585 8.585C4.976 8.195 5.609 8.195 6 8.585L7 9.585Z" fill="#333333"/>
</svg>
