<svg width="16" height="16" viewBox="0 0 16 16" fill="none" xmlns="http://www.w3.org/2000/svg">
<g clip-path="url(#clip0_2929_57)">
<path fill-rule="evenodd" clip-rule="evenodd" d="M2.11804 5.0061L2.20105 4.79614C2.87704 3.10614 4.51505 1.99609 6.33605 1.99609H9.66001C11.481 1.99609 13.119 3.10614 13.795 4.79614L13.878 5.0061H13.883C13.921 4.9961 13.96 4.99609 13.998 4.99609H15.998V5.0061C15.998 5.5261 15.788 6.03601 15.414 6.41601C15.262 6.56601 15.088 6.68612 14.899 6.78612L14.908 6.79613C15.071 6.91613 15.22 7.05605 15.352 7.21605C15.612 7.52605 15.803 7.89612 15.907 8.28612C15.967 8.51612 15.997 8.75608 15.998 8.99608V11.9961H14.998V13.9961H11.998V11.9961H3.99804V13.9961H0.998045V11.9961H-0.00195312V8.99608C-0.00195312 8.10608 0.418045 7.29612 1.09704 6.78612C0.908044 6.68612 0.73403 6.56601 0.58203 6.41601C0.208031 6.03601 -0.00195312 5.5261 -0.00195312 5.0061V4.99609H1.99804C2.03904 4.99609 2.07904 4.9961 2.11804 5.0061ZM14.998 7.99608H13.62C13.19 7.99608 12.777 8.16605 12.473 8.46605C12.169 8.77605 11.998 9.1862 11.998 9.61619V9.99608H12.998C14.098 9.99608 14.991 9.10609 14.998 8.00609V7.99608ZM2.37603 7.99608H0.998045C0.998045 9.10608 1.89303 9.99608 2.99603 9.99608C3.54803 9.99608 3.99804 9.99608 3.99804 9.99608V9.61619C3.99804 9.1862 3.82706 8.77605 3.52306 8.46605C3.21906 8.16605 2.80603 7.99608 2.37603 7.99608ZM6.33605 3.99609C5.33305 3.99609 4.43104 4.60613 4.05804 5.53613L3.87505 5.99609H12.121L11.938 5.53613C11.852 5.32613 11.736 5.12603 11.594 4.93603C11.434 4.73603 11.242 4.55601 11.026 4.41601C10.813 4.26601 10.578 4.15618 10.332 4.08618C10.113 4.02618 9.88701 3.99609 9.66001 3.99609H6.33605Z" fill="#333333"/>
</g>
<defs>
<clipPath id="clip0_2929_57">
<rect width="16" height="16" fill="white"/>
</clipPath>
</defs>
</svg>
