<svg width="16" height="16" viewBox="0 0 16 16" fill="none" xmlns="http://www.w3.org/2000/svg">
<path fill-rule="evenodd" clip-rule="evenodd" d="M12 15H3C1.896 15 1 14.104 1 13V4.00001C1 2.89601 1.896 2.00001 3 2.00001H7.044C7.579 2.02401 8 2.46501 8 3.00001C8 3.53501 7.579 3.97601 7.044 4.00001H3.399C3.178 4.00001 3 4.17901 3 4.39901V12.601C3 12.821 3.179 13 3.399 13H11.601C11.821 13 12 12.821 12 12.601V9.00001C12 9.00001 12 8.99501 12 8.98601C12.011 8.45801 12.432 8.02901 12.961 8.01001C13.489 7.99001 14 8.42401 14 9.00001C14 9.82101 14 13 14 13C14 14.104 13.104 15 12 15ZM5.697 7.89201L10.405 3.18401L12.816 5.59501L9.314 9.09801L8.108 10.303C8.107 10.304 7.838 10.553 7.316 10.652C6.575 10.792 6.035 10.894 5.515 10.992C5.367 11.02 5.218 10.972 5.115 10.885C5.028 10.782 4.98 10.633 5.008 10.485C5.106 9.96501 5.208 9.42501 5.348 8.68401C5.447 8.16301 5.695 7.89401 5.697 7.89201ZM13.39 1.20901C13.111 0.930006 12.658 0.930006 12.38 1.20901L11.429 2.16001L13.84 4.57101L14.791 3.62001C15.07 3.34201 15.07 2.88901 14.791 2.61001L13.39 1.20901Z" fill="#333333"/>
</svg>
