<svg width="16" height="16" viewBox="0 0 16 16" fill="none" xmlns="http://www.w3.org/2000/svg">
<path fill-rule="evenodd" clip-rule="evenodd" d="M12 2C12 1.448 11.552 1 11 1C10.448 1 10 1.448 10 2V14C10 14.552 10.448 15 11 15C11.552 15 12 14.552 12 14V2ZM6 4C6 3.448 5.552 3 5 3C4.448 3 4 3.448 4 4V12C4 12.552 4.448 13 5 13C5.552 13 6 12.552 6 12V4ZM9 5C9 4.448 8.552 4 8 4C7.448 4 7 4.448 7 5V11C7 11.552 7.448 12 8 12C8.552 12 9 11.552 9 11V5ZM15 6C15 5.448 14.552 5 14 5C13.448 5 13 5.448 13 6V10C13 10.552 13.448 11 14 11C14.552 11 15 10.552 15 10V6ZM3 7C3 6.448 2.552 6 2 6C1.448 6 1 6.448 1 7V9C1 9.552 1.448 10 2 10C2.552 10 3 9.552 3 9V7Z" fill="#333333"/>
</svg>
