<svg width="16" height="16" viewBox="0 0 16 16" fill="none" xmlns="http://www.w3.org/2000/svg">
<path fill-rule="evenodd" clip-rule="evenodd" d="M13 2.779C13 1.796 12.204 1 11.221 1C9.404 1 6.596 1 4.779 1C3.796 1 3 1.796 3 2.779C3 5.52 3 10.793 3 13.971C3 14.385 3.256 14.757 3.643 14.905C4.031 15.053 4.469 14.947 4.746 14.638C5.739 13.527 6.908 12.221 7.539 11.515C7.656 11.384 7.824 11.309 8 11.309C8.176 11.309 8.344 11.384 8.461 11.515C9.092 12.221 10.261 13.527 11.254 14.638C11.531 14.947 11.969 15.053 12.357 14.905C12.744 14.757 13 14.385 13 13.971C13 10.793 13 5.52 13 2.779Z" fill="#333333"/>
</svg>
