<svg width="16" height="16" viewBox="0 0 16 16" fill="none" xmlns="http://www.w3.org/2000/svg">
<path fill-rule="evenodd" clip-rule="evenodd" d="M7.989 3.906L8.503 3.393C9.278 2.617 10.511 2 11.609 2C12.706 2 13.758 2.436 14.534 3.212C14.611 3.289 14.689 3.367 14.767 3.445C15.543 4.22 15.978 5.273 15.978 6.37C15.978 7.467 15.543 8.519 14.767 9.295C13.112 10.9491 12.1194 11.9426 10.272 13.79C9.011 15.051 6.967 15.051 5.706 13.79C4.20767 12.2917 2.70933 10.7933 1.211 9.295C0.435 8.519 0 7.467 0 6.37C0 5.273 0.435 4.22 1.211 3.445C1.289 3.367 1.367 3.289 1.444 3.212C2.22 2.436 3.272 2 4.369 2C5.467 2 6.699 2.616 7.475 3.392L7.989 3.906Z" fill="#333333"/>
</svg>
