<svg width="16" height="16" viewBox="0 0 16 16" fill="none" xmlns="http://www.w3.org/2000/svg">
<path fill-rule="evenodd" clip-rule="evenodd" d="M1 3.5C1 1.568 4.137 0 8 0C11.863 0 15 1.568 15 3.5V4.5C15 4.877 14.881 5.239 14.66 5.579C13.101 8.326 9.483 10.998 9.48 11V13.154C9.48 13.971 8.905 14.544 8.153 14.864C7.28 15.235 6.52 14.782 6.52 13.965V11C6.52 11 2.899 8.327 1.34 5.579C1.265 5.464 1.202 5.346 1.151 5.226C1.052 4.991 1 4.749 1 4.5V3.5ZM8 1.631C10.626 1.631 12.759 2.61 12.759 3.815C12.759 5.021 10.626 6 8 6C5.374 6 3.241 5.021 3.241 3.815C3.241 2.61 5.374 1.631 8 1.631Z" fill="#333333"/>
</svg>
