<svg width="16" height="16" viewBox="0 0 16 16" fill="none" xmlns="http://www.w3.org/2000/svg">
<path fill-rule="evenodd" clip-rule="evenodd" d="M13.5 16H12.5C12.224 16 12 15.776 12 15.5V14H10.5C10.224 14 10 13.776 10 13.5V12.5C10 12.224 10.224 12 10.5 12H12V10.5C12 10.224 12.224 10 12.5 10H13.5C13.776 10 14 10.224 14 10.5V12H15.5C15.776 12 16 12.224 16 12.5V13.5C16 13.776 15.776 14 15.5 14H14V15.5C14 15.776 13.776 16 13.5 16ZM8.1 14H2.8C1.807 14 1 13.193 1 12.2V3.5C1 2.672 1.672 2 2.5 2H7.5C8.328 2 9 2.672 9 3.5V4H13.2C14.194 4 15 4.807 15 5.8V8.417C14.387 8.149 13.711 8 13 8C10.24 8 8 10.24 8 13C8 13.342 8.034 13.677 8.1 14Z" fill="#333333"/>
</svg>
