<svg width="16" height="16" viewBox="0 0 16 16" fill="none" xmlns="http://www.w3.org/2000/svg">
<path fill-rule="evenodd" clip-rule="evenodd" d="M13.2 15H2.8C1.807 15 1 14.193 1 13.2V2.5C1 1.672 1.672 1 2.5 1H7.5C8.328 1 9 1.672 9 2.5V3H13.2C14.194 3 15 3.807 15 4.8V13.2C15 14.193 14.193 15 13.2 15ZM6.154 11.71V10.829C6.154 10.051 6.599 9.376 7.249 9.046C7.203 8.864 7.178 8.674 7.178 8.479V7.295C7.178 6.946 7.257 6.614 7.397 6.318C7.142 6.119 6.821 6 6.473 6C5.646 6 4.973 6.672 4.973 7.5V8.274C4.973 8.749 5.195 9.174 5.541 9.448H5.5C4.672 9.448 4 10.121 4 10.948V11.5C4 11.776 4.224 12 4.5 12H6.247C6.188 11.918 6.154 11.818 6.154 11.71ZM10.406 9.448C10.752 9.173 10.973 8.749 10.973 8.274V7.5C10.973 6.672 10.301 6 9.473 6C8.646 6 7.973 6.672 7.973 7.5V8.274C7.973 8.749 8.195 9.174 8.541 9.448H8.5C7.672 9.448 7 10.121 7 10.948V11.5C7 11.776 7.224 12 7.5 12H11.473C11.749 12 11.973 11.776 11.973 11.5V10.948C11.973 10.121 11.301 9.448 10.473 9.448H10.406Z" fill="#333333"/>
</svg>
