<svg width="16" height="16" viewBox="0 0 16 16" fill="none" xmlns="http://www.w3.org/2000/svg">
<path fill-rule="evenodd" clip-rule="evenodd" d="M13.2 15H2.8C1.807 15 1 14.193 1 13.2V2.5C1 1.672 1.672 1 2.5 1H7.5C8.328 1 9 1.672 9 2.5V3H13.2C14.194 3 15 3.807 15 4.8V13.2C15 14.193 14.193 15 13.2 15ZM7.674 5C7.496 5 7.324 4.929 7.198 4.802C7.071 4.676 7 4.504 7 4.326C7 3.9 7 3.43 7 3.43C7 3.193 6.807 3 6.57 3H3.43C3.193 3 3 3.193 3 3.43V12.57C3 12.807 3.193 13 3.43 13H12.57C12.807 13 13 12.807 13 12.57V5.43C13 5.193 12.807 5 12.57 5C12.57 5 9.157 5 7.674 5Z" fill="#333333"/>
</svg>
