<svg width="16" height="16" viewBox="0 0 16 16" fill="none" xmlns="http://www.w3.org/2000/svg">
<path fill-rule="evenodd" clip-rule="evenodd" d="M13.2 15H2.8C1.807 15 1 14.193 1 13.2V2.5C1 1.672 1.672 1 2.5 1H7.5C8.328 1 9 1.672 9 2.5V3H13.2C14.194 3 15 3.807 15 4.8V13.2C15 14.193 14.193 15 13.2 15ZM10 12C10.552 12 11 11.552 11 11V9C11 8.448 10.552 8 10 8V6.987C10 5.89 9.104 5 8 5C6.896 5 6 5.89 6 6.987V8C5.448 8 5 8.448 5 9V11C5 11.552 5.448 12 6 12H10ZM8.993 8V7C8.993 6.448 8.542 6 7.987 6C7.431 6 7 6.448 7 7V8H8.993Z" fill="#333333"/>
</svg>
