<svg width="16" height="16" viewBox="0 0 16 16" fill="none" xmlns="http://www.w3.org/2000/svg">
<path fill-rule="evenodd" clip-rule="evenodd" d="M13.2 15H2.8C1.807 15 1 14.193 1 13.2V2.5C1 1.672 1.672 1 2.5 1H7.5C8.328 1 9 1.672 9 2.5V3H13.2C14.194 3 15 3.807 15 4.8V13.2C15 14.193 14.193 15 13.2 15ZM9 8V6C9 5.448 8.552 5 8 5C7.448 5 7 5.448 7 6V8H5C4.448 8 4 8.448 4 9C4 9.552 4.448 10 5 10H7V12C7 12.552 7.448 13 8 13C8.552 13 9 12.552 9 12V10H11C11.552 10 12 9.552 12 9C12 8.448 11.552 8 11 8H9Z" fill="#333333"/>
</svg>
