<svg width="16" height="16" viewBox="0 0 16 16" fill="none" xmlns="http://www.w3.org/2000/svg">
<path fill-rule="evenodd" clip-rule="evenodd" d="M4.586 10L3.707 9.121C3.317 8.731 3.317 8.097 3.707 7.707C4.097 7.317 4.731 7.317 5.121 7.707L7.69 10.276C7.696 10.282 7.702 10.287 7.707 10.293C7.856 10.441 7.948 10.624 7.983 10.816L7.986 10.833C7.992 10.866 7.996 10.899 7.998 10.934L8 10.97V11.006C7.999 11.108 7.983 11.207 7.954 11.3C7.908 11.449 7.825 11.589 7.707 11.707L5.122 14.293C4.731 14.683 4.098 14.683 3.707 14.293C3.317 13.902 3.317 13.269 3.707 12.878L4.586 12H1C0.448 12 0 11.552 0 11C0 10.448 0.448 10 1 10H4.586ZM14.2 13H8.6L8.917 12.684C9.872 11.728 9.872 10.177 8.917 9.222C8.851 9.156 8.782 9.094 8.711 9.038C8.688 9.012 8.664 8.988 8.64 8.963L5.849 6.173C4.878 5.201 3.301 5.201 2.329 6.173C2.203 6.299 2.093 6.435 2 6.579V2.5C2 1.672 2.672 1 3.5 1H8.5C9.328 1 10 1.672 10 2.5V3H14.2C15.194 3 16 3.807 16 4.8V11.2C16 12.193 15.194 13 14.2 13Z" fill="#333333"/>
</svg>
