<svg width="16" height="16" viewBox="0 0 16 16" fill="none" xmlns="http://www.w3.org/2000/svg">
<path fill-rule="evenodd" clip-rule="evenodd" d="M7 5.228V3.286C7 2.576 7.576 2 8.286 2C8.64 2 8.961 2.144 9.193 2.376L14.345 6.782V6.783C14.741 7.055 15 7.499 15 8C15 8.501 14.741 8.946 14.344 9.218H14.345L9.19 13.627C9.145 13.672 9.097 13.713 9.046 13.751L9.041 13.755V13.754C8.829 13.909 8.568 14 8.286 14C7.576 14 7 13.424 7 12.714V10.758L1.213 10C0.145 9.817 0 9.104 0 8C0 6.896 0.142 6.149 1.213 6L7 5.228Z" fill="#333333"/>
</svg>
