<svg width="16" height="16" viewBox="0 0 16 16" fill="none" xmlns="http://www.w3.org/2000/svg">
<path fill-rule="evenodd" clip-rule="evenodd" d="M7 5.493V3.073C7 2.481 7.481 2 8.073 2C8.313 2 8.535 2.079 8.714 2.213L8.733 2.228L15.154 7.142C15.408 7.342 15.571 7.652 15.571 8C15.571 8.348 15.408 8.658 15.154 8.858C15.147 8.864 15.139 8.87 15.131 8.875L8.733 13.772C8.727 13.777 8.721 13.782 8.714 13.787C8.535 13.921 8.313 14 8.073 14C7.481 14 7 13.519 7 12.927V10.507L2.733 13.772C2.727 13.777 2.721 13.782 2.714 13.787C2.535 13.921 2.313 14 2.073 14C1.481 14 1 13.519 1 12.927V3.073C1 2.481 1.481 2 2.073 2C2.313 2 2.535 2.079 2.714 2.213L2.733 2.228L7 5.493Z" fill="#333333"/>
</svg>
