<svg width="16" height="16" viewBox="0 0 16 16" fill="none" xmlns="http://www.w3.org/2000/svg">
<path fill-rule="evenodd" clip-rule="evenodd" d="M8 0.75C8 0.336 8.42 0 8.834 0C9.04 0 9.227 0.084 9.363 0.22L12.535 2.79C12.766 2.949 13 3.208 13 3.5C13 3.792 12.766 4.052 12.534 4.21L9.361 6.782C9.22102 6.92141 9.03156 6.99978 8.834 7C8.419 7 8 6.664 8 6.25V5.109L4.708 4.667C4.085 4.56 4 4.144 4 3.5C4 2.856 4.083 2.42 4.708 2.333L8 1.883V0.75ZM8.79 13.142L7.995 13.141V14.25C7.99434 14.5522 7.81238 14.8245 7.53342 14.9407C7.25447 15.0569 6.93302 14.9943 6.718 14.782L3.382 12.21C3.14515 12.051 3.00216 11.7853 3 11.5C3 11.208 3.151 10.949 3.382 10.79L6.716 8.22C6.93049 8.00578 7.25284 7.94174 7.53292 8.05771C7.813 8.17368 7.99573 8.44686 7.996 8.75V9.848L8.79 9.849C12.528 9.869 11.97 14.275 11.962 14.413C11.9716 14.6272 11.863 14.8294 11.6792 14.9397C11.4954 15.0501 11.2659 15.0509 11.0814 14.9418C10.8968 14.8327 10.7869 14.6312 10.795 14.417C10.793 14.377 11.055 13.143 8.79 13.142Z" fill="#333333"/>
</svg>
