<svg width="16" height="16" viewBox="0 0 16 16" fill="none" xmlns="http://www.w3.org/2000/svg">
<path fill-rule="evenodd" clip-rule="evenodd" d="M12.616 9.20702L14.997 10.669C15.164 10.772 15.266 10.953 15.266 11.149C15.266 11.345 15.164 11.526 14.997 11.629C13.544 12.521 10.435 14.431 8.89801 15.376C8.34701 15.714 7.65301 15.714 7.10201 15.376C5.56501 14.431 2.45601 12.521 1.00301 11.629C0.836009 11.526 0.734009 11.345 0.734009 11.149C0.734009 10.953 0.836009 10.772 1.00301 10.669L3.38401 9.20702L6.84101 11.331C7.55201 11.767 8.44801 11.767 9.15901 11.331L12.616 9.20702ZM8.89801 0.922018C8.34701 0.584018 7.65301 0.584018 7.10201 0.922018C5.56501 1.86602 2.45601 3.77702 1.00301 4.66902C0.836009 4.77202 0.734009 4.95302 0.734009 5.14902C0.734009 5.34502 0.836009 5.52602 1.00301 5.62902C2.45601 6.52102 5.56501 8.43102 7.10201 9.37602C7.65301 9.71402 8.34701 9.71402 8.89801 9.37602C10.435 8.43102 13.544 6.52102 14.997 5.62902C15.164 5.52602 15.266 5.34502 15.266 5.14902C15.266 4.95302 15.164 4.77202 14.997 4.66902C13.544 3.77702 10.435 1.86602 8.89801 0.922018Z" fill="#333333"/>
</svg>
