<svg width="16" height="16" viewBox="0 0 16 16" fill="none" xmlns="http://www.w3.org/2000/svg">
<path fill-rule="evenodd" clip-rule="evenodd" d="M7.125 14.998C7.122 14.998 5.609 15.024 4.845 14.363C4.02 13.649 4 12.373 4 12.373V8.96102C4 8.96102 3.997 7.07602 4.754 6.20502C5.511 5.33302 7.185 4.31902 7.714 3.59102C8.243 2.86202 8.548 1.86902 9.386 1.86902C10.223 1.86902 10.625 2.39002 10.625 3.18002C10.625 3.55702 10.276 4.32402 10.276 5.37302C10.276 5.78102 10.616 5.99802 11.169 5.99802H13C14.263 5.99802 15 6.76902 15 7.99802C15 8.65102 14.641 9.22102 14.111 9.52202C14.12 9.59602 14.125 9.67102 14.125 9.74802C14.125 10.401 13.766 10.971 13.235 11.272C13.245 11.346 13.25 11.421 13.25 11.498C13.25 12.151 12.891 12.721 12.36 13.022C12.37 13.096 12.375 13.171 12.375 13.248C12.375 14.214 11.591 14.998 10.625 14.998H7.125ZM3 7.56002C3 6.83602 2.724 6.24802 2 6.24802C1.276 6.24802 1 6.83602 1 7.56002V13.685C1 14.41 1.276 14.998 2 14.998C2.724 14.998 3 14.41 3 13.685V7.56002Z" fill="#333333"/>
</svg>
