<svg width="348" height="208" viewBox="0 0 348 208" fill="none" xmlns="http://www.w3.org/2000/svg">
<path d="M2.92894 180.796C-0.976307 176.891 -0.976314 170.559 2.92893 166.654L166.654 2.92893C170.559 -0.976312 176.891 -0.97631 180.796 2.92893L284.421 106.554C288.326 110.459 288.326 116.791 284.421 120.696L267.558 137.559C263.653 141.465 257.321 141.465 253.416 137.559L187.396 71.5397C183.491 67.6345 177.16 67.6345 173.254 71.5397L145.014 99.7799C141.109 103.685 141.109 110.017 145.014 113.922L197.485 166.393C201.391 170.299 201.391 176.63 197.485 180.535L173.551 204.47L114.009 144.927C110.104 141.022 103.772 141.022 99.8668 144.927L40.5346 204.259C36.6293 208.165 30.2977 208.165 26.3925 204.259L2.92894 180.796Z" fill="url(#paint0_linear_224_963)"/>
<path d="M344.174 180.796C348.079 176.891 348.079 170.559 344.174 166.654L180.449 2.92893C176.544 -0.976312 170.212 -0.97631 166.307 2.92893L62.6814 106.554C58.7762 110.459 58.7762 116.791 62.6814 120.696L79.5444 137.559C83.4497 141.465 89.7813 141.465 93.6866 137.559L159.706 71.5397C163.611 67.6345 169.943 67.6345 173.848 71.5397L202.089 99.7799C205.994 103.685 205.994 110.017 202.089 113.922L149.617 166.393C145.712 170.299 145.712 176.63 149.617 180.535L173.551 204.47L233.094 144.927C236.999 141.022 243.331 141.022 247.236 144.927L306.568 204.259C310.473 208.165 316.805 208.165 320.71 204.259L344.174 180.796Z" fill="url(#paint1_linear_224_963)"/>
<defs>
<linearGradient id="paint0_linear_224_963" x1="173.551" y1="0" x2="173.551" y2="207.188" gradientUnits="userSpaceOnUse">
<stop stop-color="#9FDB6B"/>
<stop offset="1" stop-color="#2ABB62"/>
</linearGradient>
<linearGradient id="paint1_linear_224_963" x1="173.551" y1="0" x2="173.551" y2="207.188" gradientUnits="userSpaceOnUse">
<stop stop-color="#9FDB6B"/>
<stop offset="1" stop-color="#2ABB62"/>
</linearGradient>
</defs>
</svg>
