<svg width="16" height="16" viewBox="0 0 16 16" fill="none" xmlns="http://www.w3.org/2000/svg">
<path fill-rule="evenodd" clip-rule="evenodd" d="M7.52001 8.47801C6.92901 7.88801 5.97001 7.88801 5.37901 8.47801L1.41401 12.443C0.823014 13.034 0.823014 13.993 1.41401 14.584C2.00501 15.175 2.96501 15.175 3.55501 14.584L7.52001 10.62C8.11101 10.029 8.11101 9.06901 7.52001 8.47801ZM13.5 10C14.328 10 15 10.672 15 11.5C15 12.328 14.328 13 13.5 13C12.672 13 12 12.328 12 11.5C12 10.672 12.672 10 13.5 10ZM13.538 1.31601C13.854 1.20701 14.219 1.27901 14.472 1.53101C14.724 1.78301 14.795 2.14801 14.686 2.46401C14.668 2.51701 14.645 2.56901 14.616 2.61801L13.697 4.64201L15.071 6.01601C15.426 6.37001 15.426 6.94601 15.071 7.30001C14.841 7.53101 14.517 7.61101 14.221 7.54201V7.54301L14.211 7.53901C14.172 7.53001 14.134 7.51801 14.097 7.50301L12.293 6.93001L11.302 9.17801C11.156 9.63701 10.672 9.90501 10.202 9.77901C9.83901 9.68101 9.58701 9.37701 9.53801 9.02701L9.18001 6.82301L6.97601 6.46501C6.62601 6.41601 6.32101 6.16401 6.22401 5.80101C6.11501 5.39401 6.30001 4.97801 6.64901 4.77801H6.65001C6.70201 4.74801 6.75801 4.72301 6.81701 4.70301L9.06601 3.70201L8.50101 1.91201C8.36901 1.58501 8.43601 1.19501 8.70101 0.930007C9.05601 0.575007 9.63101 0.575007 9.98601 0.930007L11.353 2.29701L13.391 1.38201C13.438 1.35501 13.487 1.33301 13.537 1.31601H13.538ZM4.50201 1.00001C5.33101 1.00001 6.00401 1.67301 6.00401 2.50201C6.00401 3.33101 5.33101 4.00401 4.50201 4.00401C3.67301 4.00401 3.00001 3.33101 3.00001 2.50201C3.00001 1.67301 3.67301 1.00001 4.50201 1.00001Z" fill="#333333"/>
</svg>
