<svg width="16" height="16" viewBox="0 0 16 16" fill="none" xmlns="http://www.w3.org/2000/svg">
<path fill-rule="evenodd" clip-rule="evenodd" d="M9.5 9H6.5C5.672 9 5 9.672 5 10.5C5 11.328 5.672 12 6.5 12H9.036C9.278 10.305 10.738 9 12.5 9C14.432 9 16 10.568 16 12.5C16 14.432 14.432 16 12.5 16C11.105 16 9.899 15.182 9.337 14H6.5C4.568 14 3 12.432 3 10.5C3 8.568 4.568 7 6.5 7H9.5C10.328 7 11 6.328 11 5.5C11 4.672 10.328 4 9.5 4H6.964C6.722 5.695 5.262 7 3.5 7C1.568 7 0 5.432 0 3.5C0 1.568 1.568 0 3.5 0C4.895 0 6.101 0.818 6.663 2H9.5C11.432 2 13 3.568 13 5.5C13 7.432 11.432 9 9.5 9ZM11 12.5C11 13.328 11.672 14 12.5 14C13.328 14 14 13.328 14 12.5C14 11.672 13.328 11 12.5 11C11.672 11 11 11.672 11 12.5Z" fill="#333333"/>
</svg>
