<svg width="16" height="16" viewBox="0 0 16 16" fill="none" xmlns="http://www.w3.org/2000/svg">
<path fill-rule="evenodd" clip-rule="evenodd" d="M0 14.925C0 15.167 0.12 15.392 0.32 15.528C0.52 15.663 0.774 15.69 0.998 15.601C2.16 15.136 4.009 14.397 4.714 14.114C4.899 14.041 5.104 14.035 5.292 14.097C6.281 14.427 9.504 15.501 10.618 15.873C10.864 15.955 11.133 15.947 11.374 15.85C12.143 15.543 13.922 14.831 15.036 14.386C15.618 14.153 16 13.589 16 12.962C16 10.523 16 4.45502 16 2.02802C16 1.79702 15.885 1.58102 15.694 1.45202C15.503 1.32202 15.26 1.29602 15.046 1.38202C13.86 1.85602 11.911 2.63602 11.237 2.90502C11.084 2.96602 10.914 2.97102 10.757 2.91902C9.813 2.60402 6.38 1.46002 5.316 1.10502C5.112 1.03702 4.89 1.04402 4.691 1.12402C3.951 1.42002 2.055 2.17802 0.913 2.63502C0.362 2.85502 0 3.38902 0 3.98302V14.925ZM5.518 3.53802C5.398 3.49902 5.266 3.52002 5.163 3.59402C5.061 3.66902 5 3.78802 5 3.91502C5 5.46602 5 9.88602 5 11.342C5 11.623 5.181 11.872 5.448 11.958C6.358 12.252 8.419 12.918 9.425 13.243C9.559 13.286 9.705 13.263 9.819 13.18C9.933 13.097 10 12.965 10 12.824C10 11.229 10 6.92702 10 5.48102C10 5.19402 9.815 4.94002 9.542 4.85102C8.611 4.54702 6.499 3.85802 5.518 3.53802Z" fill="#333333"/>
</svg>
