<svg width="16" height="16" viewBox="0 0 16 16" fill="none" xmlns="http://www.w3.org/2000/svg">
<path fill-rule="evenodd" clip-rule="evenodd" d="M6.7598 2.28015C7.10326 1.93482 7.55406 1.76215 8.0044 1.76682C8.45473 1.76215 8.90553 1.93482 9.249 2.28015L14.492 7.52082C15.1752 8.20215 15.1752 9.31282 14.492 9.99882C13.8093 10.6802 12.7 10.6802 12.0168 9.99882C12.0168 9.99882 10.3349 8.31415 9.14867 7.12882C8.5168 6.49882 7.492 6.49882 6.86013 7.12882C5.67386 8.31415 3.992 9.99882 3.992 9.99882C3.3088 10.6802 2.19953 10.6802 1.51679 9.99882C0.833594 9.31282 0.833594 8.20215 1.51679 7.52082L6.7598 2.28015ZM5.50025 11.7341C5.50025 10.3534 6.61954 9.2341 8.00025 9.2341C9.38096 9.2341 10.5003 10.3534 10.5003 11.7341C10.5003 13.1148 9.38096 14.2341 8.00025 14.2341C6.61954 14.2341 5.50025 13.1148 5.50025 11.7341Z" fill="#333333"/>
</svg>
