<svg width="16" height="16" viewBox="0 0 16 16" fill="none" xmlns="http://www.w3.org/2000/svg">
<path fill-rule="evenodd" clip-rule="evenodd" d="M10.4997 4.26593C10.4997 5.64664 9.3804 6.76593 7.99969 6.76593C6.61898 6.76593 5.49969 5.64664 5.49969 4.26593C5.49969 2.88522 6.61898 1.76593 7.99969 1.76593C9.3804 1.76593 10.4997 2.88522 10.4997 4.26593ZM9.24015 13.7199C8.89668 14.0652 8.44588 14.2379 7.99555 14.2332C7.54521 14.2379 7.09441 14.0652 6.75095 13.7199L1.50794 8.47921C0.824744 7.79787 0.824744 6.6872 1.50794 6.0012C2.19068 5.31987 3.29995 5.31987 3.98315 6.0012C3.98315 6.0012 5.66501 7.68587 6.85128 8.87121C7.48315 9.50121 8.50795 9.50121 9.13982 8.87121C10.3261 7.68587 12.0079 6.0012 12.0079 6.0012C12.6912 5.31987 13.8004 5.31987 14.4832 6.0012C15.1664 6.6872 15.1664 7.79787 14.4832 8.47921L9.24015 13.7199Z" fill="#333333"/>
</svg>
