<svg width="16" height="16" viewBox="0 0 16 16" fill="none" xmlns="http://www.w3.org/2000/svg">
<path fill-rule="evenodd" clip-rule="evenodd" d="M8 11.365C9.002 11.365 9.816 12.179 9.816 13.181C9.816 14.183 9.002 14.997 8 14.997C6.998 14.997 6.184 14.183 6.184 13.181C6.184 12.179 6.998 11.365 8 11.365ZM8 6.17399C9.007 6.17399 9.825 6.99199 9.825 7.99899C9.825 9.00599 9.007 9.82399 8 9.82399C6.993 9.82399 6.175 9.00599 6.175 7.99899C6.175 6.99199 6.993 6.17399 8 6.17399ZM8 1.00299C8.998 1.00299 9.809 1.81399 9.809 2.81199C9.809 3.81099 8.998 4.62099 8 4.62099C7.002 4.62099 6.191 3.81099 6.191 2.81199C6.191 1.81399 7.002 1.00299 8 1.00299Z" fill="#333333"/>
</svg>
