<svg width="16" height="16" viewBox="0 0 16 16" fill="none" xmlns="http://www.w3.org/2000/svg">
<path fill-rule="evenodd" clip-rule="evenodd" d="M4.63495 7.99999C4.63495 9.00199 3.82095 9.81599 2.81895 9.81599C1.81695 9.81599 1.00295 9.00199 1.00295 7.99999C1.00295 6.99799 1.81695 6.18399 2.81895 6.18399C3.82095 6.18399 4.63495 6.99799 4.63495 7.99999ZM9.82595 7.99999C9.82595 9.00699 9.00795 9.82499 8.00095 9.82499C6.99395 9.82499 6.17595 9.00699 6.17595 7.99999C6.17595 6.99299 6.99395 6.17499 8.00095 6.17499C9.00795 6.17499 9.82595 6.99299 9.82595 7.99999ZM14.9969 7.99999C14.9969 8.99799 14.1859 9.80899 13.1879 9.80899C12.1889 9.80899 11.3789 8.99799 11.3789 7.99999C11.3789 7.00199 12.1889 6.19099 13.1879 6.19099C14.1859 6.19099 14.9969 7.00199 14.9969 7.99999Z" fill="#333333"/>
</svg>
