<svg width="16" height="16" viewBox="0 0 16 16" fill="none" xmlns="http://www.w3.org/2000/svg">
<path fill-rule="evenodd" clip-rule="evenodd" d="M8 0C12.415 0 16 3.585 16 8C16 12.415 12.415 16 8 16C3.585 16 0 12.415 0 8C0 3.585 3.585 0 8 0ZM8 2C11.311 2 14 4.689 14 8C14 11.311 11.311 14 8 14C4.689 14 2 11.311 2 8C2 4.689 4.689 2 8 2ZM11.875 5.198C11.952 4.896 11.864 4.576 11.644 4.356C11.424 4.136 11.104 4.048 10.802 4.125C9.583 4.437 7.856 4.878 6.704 5.172C5.952 5.364 5.364 5.952 5.172 6.704C4.878 7.856 4.437 9.583 4.125 10.802C4.048 11.104 4.136 11.424 4.356 11.644C4.576 11.864 4.896 11.952 5.198 11.875C6.417 11.563 8.144 11.122 9.296 10.828C10.048 10.636 10.636 10.048 10.828 9.296C11.122 8.144 11.563 6.417 11.875 5.198ZM6.532 7.624C6.575 7.498 6.68 7.404 6.809 7.374C6.938 7.344 7.073 7.383 7.167 7.477C7.559 7.868 8.132 8.441 8.523 8.833C8.617 8.927 8.656 9.062 8.626 9.191C8.596 9.32 8.502 9.425 8.376 9.468C7.773 9.674 6.834 9.995 6.211 10.208C6.092 10.249 5.96 10.218 5.871 10.129C5.782 10.04 5.751 9.908 5.792 9.789C6.005 9.166 6.326 8.227 6.532 7.624Z" fill="#333333"/>
</svg>
