<svg width="16" height="16" viewBox="0 0 16 16" fill="none" xmlns="http://www.w3.org/2000/svg">
<path fill-rule="evenodd" clip-rule="evenodd" d="M3.284 4.70799C3.688 3.74199 4.407 2.94899 5.336 2.45899C5.475 1.38799 6.391 0.55899 7.503 0.55899C8.615 0.55899 9.532 1.38799 9.67 2.45899C10.6 2.94899 11.321 3.74199 11.728 4.70799C11.728 4.70799 12.222 5.65399 12.363 7.23499C12.409 7.74499 12.595 8.50799 12.853 9.00799C13.173 9.62799 13.942 10.682 14.036 11.826C14.056 11.933 14.066 12.041 14.066 12.151C14.066 12.454 13.99 12.748 13.847 13.027C13.842 13.038 13.837 13.049 13.832 13.06C13.748 13.248 13.67 13.363 13.597 13.418C12.629 14.674 10.265 15.56 7.503 15.56C4.733 15.56 2.364 14.669 1.401 13.408C1.336 13.352 1.266 13.248 1.191 13.087C1.028 12.79 0.940002 12.476 0.940002 12.151C0.940002 12.028 0.954002 11.907 0.979002 11.788C1.087 10.658 1.842 9.62099 2.158 9.00799C2.416 8.50799 2.602 7.74499 2.648 7.23499C2.79 5.65399 3.284 4.70799 3.284 4.70799ZM7.503 14.062C4.936 14.062 2.663 13.191 2.663 12.287C2.663 11.661 3.856 11.117 5.325 10.842C5.422 11.957 6.36 12.833 7.503 12.833C8.647 12.833 9.584 11.957 9.681 10.842C11.15 11.117 12.344 11.661 12.344 12.287C12.344 13.191 10.071 14.062 7.503 14.062Z" fill="#333333"/>
</svg>
