<svg width="16" height="16" viewBox="0 0 16 16" fill="none" xmlns="http://www.w3.org/2000/svg">
<path fill-rule="evenodd" clip-rule="evenodd" d="M2.78201 10.582C2.908 10.336 3.14401 10.166 3.41701 10.123C3.68901 10.081 3.96601 10.171 4.16101 10.366C4.616 10.821 5.17901 11.384 5.63401 11.839C5.82901 12.034 5.919 12.311 5.87701 12.583C5.834 12.856 5.664 13.092 5.418 13.218C4.244 13.821 2.35201 14.792 1.14301 15.413C0.983005 15.495 0.789005 15.465 0.662005 15.338C0.535005 15.211 0.505005 15.017 0.587005 14.857C1.20801 13.648 2.17901 11.756 2.78201 10.582ZM9.30301 3.02299L9.11901 2.83899C8.709 2.42999 8.709 1.76499 9.11901 1.35499C9.528 0.944985 10.193 0.944985 10.603 1.35499L14.693 5.44499C15.102 5.85499 15.102 6.51999 14.693 6.92899C14.283 7.33898 13.618 7.33898 13.209 6.92899L12.998 6.71899C12.471 7.74999 11.611 9.20498 10.306 10.833L10.493 11.02C11.273 11.8 11.273 13.067 10.493 13.848L10.405 13.936C10.21 14.131 9.893 14.131 9.698 13.936L2.09201 6.32999C1.89601 6.13498 1.89601 5.81799 2.09201 5.62299L2.18001 5.53499C2.96001 4.75399 4.22701 4.75399 5.00801 5.53499L5.17301 5.69999C6.81701 4.40599 8.27301 3.54999 9.30301 3.02299Z" fill="#333333"/>
</svg>
