<svg width="16" height="16" viewBox="0 0 16 16" fill="none" xmlns="http://www.w3.org/2000/svg">
<path fill-rule="evenodd" clip-rule="evenodd" d="M5.66 3.78999L6.404 5.07899C6.642 5.49199 6.538 5.99799 6.172 6.20899C6.01 6.30299 5.825 6.32299 5.647 6.28199L1.751 5.58499C1.506 5.54499 1.271 5.38699 1.128 5.13899C0.983998 4.88999 0.964998 4.60699 1.053 4.37599L2.397 0.652987C2.45 0.477987 2.561 0.327987 2.722 0.234987C3.089 0.0229869 3.579 0.185987 3.817 0.597987L4.66 2.05799C4.877 1.92799 5.101 1.80899 5.331 1.70199C5.973 1.40099 6.658 1.19399 7.359 1.08599C7.705 1.03399 8.053 1.00699 8.403 1.00099C8.5 0.999987 8.5 0.999987 8.596 1.00099C8.946 1.00699 9.295 1.03299 9.64 1.08599C10.341 1.19399 11.026 1.40099 11.669 1.70199C13.2 2.41699 14.467 3.65399 15.219 5.16699C15.548 5.82799 15.778 6.53799 15.899 7.26599C16.029 8.04999 16.034 8.85499 15.913 9.64099C15.797 10.402 15.562 11.143 15.219 11.833C14.831 12.614 14.305 13.326 13.674 13.928C12.997 14.573 12.2 15.091 11.334 15.445C10.437 15.812 9.469 16 8.5 16C7.53 16 6.563 15.812 5.665 15.445C4.8 15.091 4.003 14.573 3.326 13.928C2.673 13.305 2.133 12.565 1.74 11.751C1.549 11.354 1.393 10.94 1.275 10.516C1.275 10.516 1.274 10.514 1.273 10.511C1.141 9.97899 1.461 9.43999 1.991 9.30099C2.521 9.16199 3.064 9.47499 3.21 10.003C3.227 10.067 3.236 10.099 3.236 10.099C3.311 10.346 3.404 10.588 3.513 10.823C3.794 11.423 4.184 11.972 4.659 12.434C5.149 12.914 5.729 13.3 6.361 13.568C7.014 13.844 7.719 13.991 8.429 14C9.141 14.009 9.853 13.88 10.515 13.619C11.154 13.367 11.743 12.994 12.245 12.526C12.73 12.074 13.133 11.536 13.428 10.943C13.679 10.438 13.851 9.89499 13.936 9.33799C14.028 8.73799 14.021 8.12299 13.914 7.52599C13.823 7.01599 13.659 6.52099 13.428 6.05699C12.886 4.96699 11.979 4.07099 10.882 3.54199C10.182 3.20399 9.418 3.02599 8.642 3.00199C8.571 2.99999 8.5 2.99999 8.429 2.99999C7.65 3.01499 6.883 3.18399 6.177 3.51399C6 3.59599 5.827 3.68899 5.66 3.78999ZM7 9.00299V8.99999V6.48499C7 5.93399 7.448 5.48499 8 5.48499C8.552 5.48499 9 5.93399 9 6.48499V8.42299L10.232 9.13399C10.71 9.40999 10.874 10.022 10.598 10.5C10.322 10.978 9.71 11.142 9.232 10.866L7.504 9.86799C7.501 9.86699 7.498 9.86499 7.495 9.86299H7.494L7.492 9.86199V9.86099H7.491C7.338 9.77099 7.218 9.64599 7.135 9.50199C7.049 9.35499 7 9.18499 7 9.00299Z" fill="#333333"/>
</svg>
