<svg width="16" height="16" viewBox="0 0 16 16" fill="none" xmlns="http://www.w3.org/2000/svg">
<path fill-rule="evenodd" clip-rule="evenodd" d="M5.27101 3.74601L6.06301 5.11701C6.31001 5.54501 6.20101 6.06901 5.82201 6.28901C5.65401 6.38501 5.46201 6.40701 5.27801 6.36401L1.24001 5.64101C0.986014 5.60001 0.742014 5.43601 0.594014 5.17901C0.445014 4.92101 0.425014 4.62801 0.516014 4.38801L1.91001 0.529012C1.96401 0.349012 2.07901 0.193012 2.24601 0.0960121C2.62601 -0.122988 3.13501 0.0460121 3.38101 0.473012L4.27101 2.01401C4.46501 1.90001 4.66501 1.79501 4.87001 1.70001C5.51201 1.40001 6.19701 1.19201 6.89801 1.08501C7.24401 1.03201 7.59201 1.00501 7.94201 0.999012C8.03901 0.998012 8.03901 0.998012 8.13501 0.999012C8.48501 1.00501 8.83301 1.03201 9.17901 1.08501C9.88001 1.19201 10.565 1.40001 11.208 1.70001C12.739 2.41501 14.006 3.65201 14.758 5.16501C15.087 5.82701 15.316 6.53601 15.437 7.26501C15.567 8.04901 15.572 8.85301 15.452 9.63901C15.336 10.4 15.101 11.142 14.758 11.831C14.37 12.612 13.844 13.324 13.212 13.926C12.535 14.571 11.739 15.089 10.873 15.443C9.97601 15.81 9.00801 15.998 8.03901 15.998C7.06901 15.998 6.10201 15.81 5.20401 15.443C4.33901 15.089 3.54101 14.571 2.86501 13.926C2.21101 13.303 1.67101 12.563 1.27901 11.749C1.08801 11.352 0.932014 10.939 0.814014 10.514C0.814014 10.514 0.813014 10.513 0.812014 10.509C0.680014 9.97801 1.00001 9.43801 1.53001 9.29901C2.06001 9.16001 2.60301 9.47301 2.74901 10.001C2.76601 10.065 2.77501 10.097 2.77501 10.097C2.85001 10.344 2.94301 10.586 3.05201 10.821C3.33301 11.421 3.72301 11.97 4.19701 12.433C4.68801 12.912 5.26801 13.299 5.89901 13.566C6.55301 13.843 7.25801 13.989 7.96701 13.998C8.68001 14.007 9.39101 13.878 10.054 13.617C10.692 13.365 11.282 12.992 11.784 12.524C12.269 12.073 12.672 11.534 12.967 10.941C13.218 10.436 13.39 9.89301 13.475 9.33601C13.567 8.73701 13.559 8.12101 13.453 7.52401C13.362 7.01501 13.197 6.51901 12.967 6.05501C12.425 4.96501 11.518 4.06901 10.421 3.54001C9.72101 3.20201 8.95701 3.02501 8.18101 3.00001C8.11001 2.99901 8.03901 2.99801 7.96701 2.99901C7.18901 3.01301 6.42201 3.18201 5.71601 3.51201C5.56401 3.58301 5.41501 3.66101 5.27101 3.74601Z" fill="#333333"/>
</svg>
