<svg width="16" height="16" viewBox="0 0 16 16" fill="none" xmlns="http://www.w3.org/2000/svg">
<path fill-rule="evenodd" clip-rule="evenodd" d="M10 10C10.672 10 11 10.392 11 11V13.6C11 14.373 10.373 15 9.6 15H6.4C5.627 15 5 14.373 5 13.6V11C5 10.371 5.366 10 6 10H10ZM4 13H3C1.896 13 1 12.104 1 11V6C1 4.896 1.896 4 3 4H4V2.2C4 1.538 4.538 1 5.2 1H10.8C11.462 1 12 1.538 12 2.2V4H13C14.104 4 15 4.896 15 6V11C15 12.104 14.104 13 13 13H12V10.5C12 9.672 11.328 9 10.5 9H5.5C4.672 9 4 9.672 4 10.5V13ZM4 6C4.552 6 5 6.448 5 7C5 7.552 4.552 8 4 8C3.448 8 3 7.552 3 7C3 6.448 3.448 6 4 6Z" fill="#333333"/>
</svg>
