<svg width="16" height="16" viewBox="0 0 16 16" fill="none" xmlns="http://www.w3.org/2000/svg">
<path fill-rule="evenodd" clip-rule="evenodd" d="M11.729 2.015L12.619 0.474999C12.865 0.0469989 13.374 -0.121001 13.754 0.0979989C13.921 0.193999 14.036 0.349999 14.09 0.530999L15.484 4.39C15.575 4.63 15.555 4.923 15.406 5.181C15.258 5.438 15.014 5.602 14.76 5.643L10.722 6.365C10.538 6.408 10.346 6.387 10.178 6.291C9.79901 6.071 9.69001 5.546 9.93701 5.119L10.729 3.747C10.585 3.663 10.436 3.585 10.284 3.514C9.57801 3.184 8.81101 3.015 8.03301 3C7.96101 3 7.89001 3 7.81901 3.002C7.04301 3.026 6.27901 3.204 5.57901 3.542C4.48201 4.071 3.57501 4.967 3.03301 6.057C2.80301 6.521 2.63801 7.016 2.54701 7.526C2.44101 8.123 2.43301 8.738 2.52501 9.338C2.61001 9.895 2.78201 10.438 3.03301 10.943C3.32801 11.536 3.73101 12.074 4.21601 12.526C4.71801 12.994 5.30801 13.367 5.94601 13.619C6.60901 13.88 7.32001 14.009 8.03301 14C8.74201 13.991 9.44701 13.844 10.101 13.568C10.732 13.3 11.312 12.914 11.803 12.434C12.277 11.972 12.667 11.423 12.948 10.823C13.057 10.588 13.15 10.346 13.225 10.099C13.225 10.099 13.234 10.067 13.251 10.003C13.397 9.475 13.94 9.162 14.47 9.301C15 9.44 15.32 9.979 15.188 10.511C15.187 10.514 15.186 10.516 15.186 10.516C15.068 10.94 14.912 11.354 14.721 11.751C14.329 12.565 13.789 13.305 13.135 13.928C12.459 14.573 11.661 15.091 10.796 15.445C9.89801 15.812 8.93101 16 7.96101 16C6.99201 16 6.02401 15.812 5.12701 15.445C4.26101 15.091 3.46501 14.573 2.78801 13.928C2.15601 13.326 1.63001 12.614 1.24201 11.833C0.899009 11.143 0.664009 10.402 0.548009 9.641C0.428009 8.855 0.433009 8.05 0.563009 7.266C0.684009 6.538 0.913009 5.828 1.24201 5.167C1.99401 3.654 3.26101 2.417 4.79201 1.702C5.43501 1.401 6.12001 1.194 6.82101 1.086C7.16701 1.033 7.51501 1.007 7.86501 1.001C7.96101 0.999999 7.96101 0.999999 8.05801 1.001C8.40801 1.007 8.75601 1.034 9.10201 1.086C9.80301 1.194 10.488 1.401 11.13 1.702C11.335 1.797 11.535 1.902 11.729 2.015Z" fill="#333333"/>
</svg>
