<svg width="16" height="16" viewBox="0 0 16 16" fill="none" xmlns="http://www.w3.org/2000/svg">
<path fill-rule="evenodd" clip-rule="evenodd" d="M9.827 2.241C10.469 1.482 11.429 1 12.5 1C14.432 1 16 2.568 16 4.5C16 5.571 15.518 6.531 14.759 7.173C14.916 7.756 15 8.368 15 9C15 12.864 11.863 16 8 16C4.136 16 1 12.864 1 9C1 8.368 1.083 7.756 1.241 7.173C0.482 6.531 0 5.571 0 4.5C0 2.568 1.568 1 3.5 1C4.571 1 5.53 1.482 6.172 2.241C6.755 2.084 7.368 2 8 2C8.632 2 9.244 2.084 9.827 2.241ZM8 4.02C10.749 4.02 12.98 6.252 12.98 9C12.98 11.749 10.749 13.98 8 13.98C5.252 13.98 3.02 11.749 3.02 9C3.02 6.252 5.252 4.02 8 4.02ZM7.63 10.191C7.261 10.044 7 9.683 7 9.262V7C7 6.448 7.448 6 8 6C8.552 6 9 6.448 9 7V8.673L9.814 9.17C10.292 9.446 10.456 10.058 10.18 10.536C9.904 11.014 9.292 11.178 8.814 10.902L7.63 10.191Z" fill="#333333"/>
</svg>
