<svg width="16" height="16" viewBox="0 0 16 16" fill="none" xmlns="http://www.w3.org/2000/svg">
<path fill-rule="evenodd" clip-rule="evenodd" d="M6.99974 14.011C6.33074 14.011 5.66174 14 4.99374 14C4.78274 13.997 4.57374 13.987 4.36474 13.96C3.91374 13.903 3.47174 13.783 3.05374 13.606C2.42474 13.34 1.85174 12.944 1.38074 12.449C0.880738 11.924 0.495738 11.291 0.262738 10.603C0.101738 10.128 0.0137384 9.63 0.00173842 9.129C-0.0112616 8.637 0.0487384 8.144 0.178738 7.671C0.408738 6.839 0.856738 6.072 1.46674 5.463C1.62674 5.303 1.79774 5.154 1.97674 5.018C2.09674 4.927 2.21874 4.831 2.35474 4.768C2.45274 4.722 2.55474 4.696 2.66074 4.68C2.71474 4.676 2.76674 4.674 2.82074 4.674C2.98174 4.685 3.13574 4.725 3.27674 4.806C3.36874 4.859 3.45274 4.927 3.52374 5.006C3.76374 5.274 3.84174 5.661 3.72374 6.002C3.66474 6.17 3.56174 6.321 3.42574 6.436C3.33974 6.509 3.24174 6.568 3.15174 6.638C3.09274 6.685 3.03474 6.733 2.97874 6.784C2.76774 6.98 2.58274 7.201 2.43274 7.447C2.04274 8.089 1.90974 8.869 2.06074 9.605C2.10974 9.845 2.18874 10.078 2.29474 10.299C2.43174 10.582 2.61274 10.842 2.82874 11.069C3.07774 11.331 3.37474 11.547 3.70074 11.704C4.08374 11.889 4.49774 11.983 4.92174 11.999C5.61474 12.008 6.30674 12.005 6.99974 12.003V9.875C6.99974 9.392 7.34774 9 7.77774 9C7.96674 9 8.13974 9.076 8.27474 9.202L11.3447 11.792C11.5397 11.951 11.6667 12.209 11.6667 12.5C11.6667 12.791 11.5397 13.049 11.3447 13.208L8.27474 15.798C8.13974 15.924 7.96674 16 7.77774 16C7.34774 16 6.99974 15.608 6.99974 15.125V14.011ZM8.99974 3.997V6.125C8.99974 6.608 8.65174 7 8.22174 7C8.03274 7 7.85974 6.924 7.72474 6.798L4.65474 4.208C4.45974 4.049 4.33274 3.791 4.33274 3.5C4.33274 3.209 4.45974 2.951 4.65474 2.792L7.72474 0.202C7.85974 0.076 8.03274 0 8.22174 0C8.65174 0 8.99974 0.392 8.99974 0.875V1.986C9.70874 1.983 10.4187 1.993 11.1277 2.002C11.3397 2.01 11.5497 2.025 11.7597 2.058C12.2877 2.138 12.8007 2.304 13.2757 2.548C13.8117 2.822 14.2957 3.193 14.6997 3.638C15.0787 4.055 15.3867 4.535 15.6067 5.054C15.7827 5.472 15.9027 5.914 15.9597 6.365C16.0327 6.943 16.0057 7.533 15.8777 8.102C15.6487 9.12 15.0937 10.052 14.3137 10.743C14.2007 10.843 14.0837 10.938 13.9617 11.027C13.8757 11.091 13.7877 11.158 13.6917 11.208C13.5507 11.284 13.3917 11.325 13.2327 11.326C12.8157 11.331 12.4297 11.067 12.2837 10.677C12.2467 10.577 12.2257 10.471 12.2217 10.365C12.2167 10.241 12.2347 10.116 12.2757 9.998C12.3347 9.83 12.4377 9.679 12.5737 9.564C12.6597 9.491 12.7577 9.432 12.8477 9.362C12.9067 9.315 12.9647 9.267 13.0207 9.216C13.2317 9.02 13.4167 8.799 13.5667 8.553C13.9567 7.911 14.0897 7.131 13.9387 6.395C13.8897 6.155 13.8107 5.922 13.7047 5.701C13.5677 5.418 13.3867 5.158 13.1707 4.931C12.9217 4.669 12.6247 4.453 12.2987 4.296C11.9157 4.111 11.5017 4.017 11.0777 4.001C10.3847 3.992 9.69274 3.995 8.99974 3.997Z" fill="#333333"/>
</svg>
