<svg width="16" height="16" viewBox="0 0 16 16" fill="none" xmlns="http://www.w3.org/2000/svg">
<path fill-rule="evenodd" clip-rule="evenodd" d="M13 12.998C12.997 12.932 12.881 10.817 9 10.814C8.686 10.814 8.341 10.813 8 10.813V12.714C8 13.424 7.424 14 6.714 14C6.432 14 6.171 13.909 5.959 13.754V13.755L5.954 13.751C5.903 13.713 5.855 13.672 5.81 13.627L0.655 9.218H0.656C0.259 8.946 0 8.501 0 8C0 7.499 0.259 7.055 0.655 6.783V6.782L5.807 2.376C6.039 2.144 6.36 2 6.714 2C7.424 2 8 2.576 8 3.286V5.168C8.415 5.168 8.79 5.169 9 5.17C15.407 5.205 15.014 12.758 15 12.994V13C15 13.552 14.552 14 14 14C13.448 14 13 13.552 13 13V12.998Z" fill="#333333"/>
</svg>
