<svg width="16" height="16" viewBox="0 0 16 16" fill="none" xmlns="http://www.w3.org/2000/svg">
<path fill-rule="evenodd" clip-rule="evenodd" d="M7.274 13.536C7.038 13.819 6.683 14 6.285 14C5.947 14 5.639 13.869 5.409 13.654L0.52 9.113C0.201 8.839 0 8.441 0 8C0 7.559 0.201 7.161 0.52 6.887L5.393 2.361C5.624 2.138 5.939 2 6.285 2C6.683 2 7.038 2.181 7.274 2.464L2.501 6.897C2.189 7.171 1.993 7.564 1.993 8C1.993 8.436 2.189 8.829 2.501 9.103L7.274 13.536ZM10.999 10.83V12.714C10.999 13.424 10.423 14 9.713 14C9.381 14 9.079 13.874 8.851 13.668L8.846 13.663C8.826 13.645 8.807 13.626 8.788 13.606L4.16 9.095C3.853 8.821 3.661 8.432 3.661 8C3.661 7.568 3.853 7.179 4.16 6.905L8.805 2.376C9.037 2.144 9.359 2 9.713 2C10.423 2 10.999 2.576 10.999 3.286V5.158C16.183 5.187 15.999 10 15.999 10V10.959C15.999 10.973 16 10.986 16 11V11.656C16 12.208 15.552 12.656 15 12.656C14.586 12.656 14.231 12.404 14.079 12.045C14.079 12.045 13.602 10.832 12.004 10.83C11.753 10.83 11.401 10.83 10.999 10.83Z" fill="#333333"/>
</svg>
