<svg width="16" height="16" viewBox="0 0 16 16" fill="none" xmlns="http://www.w3.org/2000/svg">
<path fill-rule="evenodd" clip-rule="evenodd" d="M13.287 2.213C13.466 2.079 13.688 2 13.928 2C14.52 2 15.001 2.481 15.001 3.073V12.927C15.001 13.519 14.52 14 13.928 14C13.688 14 13.466 13.921 13.287 13.787C13.28 13.782 13.274 13.777 13.268 13.772L9.00099 10.507V12.927C9.00099 13.519 8.51999 14 7.92799 14C7.68799 14 7.46599 13.921 7.28699 13.787C7.27999 13.782 7.27399 13.777 7.26799 13.772L0.869993 8.875C0.861993 8.87 0.853993 8.864 0.846993 8.858C0.592993 8.658 0.429993 8.348 0.429993 8C0.429993 7.642 0.602993 7.324 0.869993 7.125L7.26799 2.228C7.27399 2.223 7.27999 2.218 7.28699 2.213C7.46599 2.079 7.68799 2 7.92799 2C8.51999 2 9.00099 2.481 9.00099 3.073V5.493L13.268 2.228C13.274 2.223 13.28 2.218 13.287 2.213Z" fill="#333333"/>
</svg>
