<svg width="16" height="16" viewBox="0 0 16 16" fill="none" xmlns="http://www.w3.org/2000/svg">
<path fill-rule="evenodd" clip-rule="evenodd" d="M13 14.99H3C1.896 14.99 1 14.094 1 12.99V3.01001C1 1.90601 1.896 1.01001 3 1.01001C3 1.01001 8.123 1.01001 10.493 1.01001C11.246 1.01001 11.969 1.30901 12.502 1.84201C13.011 2.35101 13.659 2.99901 14.168 3.50801C14.701 4.04101 15 4.76401 15 5.51701C15 7.88301 15 12.99 15 12.99C15 14.094 14.104 14.99 13 14.99ZM8 7.99001C9.104 7.99001 10 8.88601 10 9.99001C10 11.094 9.104 11.99 8 11.99C6.896 11.99 6 11.094 6 9.99001C6 8.88601 6.896 7.99001 8 7.99001ZM9.5 2.99001H3.5C3.224 2.99001 3 3.21401 3 3.49001V4.49001C3 4.76601 3.224 4.99001 3.5 4.99001H9.5C9.776 4.99001 10 4.76601 10 4.49001V3.49001C10 3.21401 9.776 2.99001 9.5 2.99001Z" fill="#333333"/>
</svg>
