<svg width="16" height="16" viewBox="0 0 16 16" fill="none" xmlns="http://www.w3.org/2000/svg">
<path fill-rule="evenodd" clip-rule="evenodd" d="M10.91 12.806C9.793 13.56 8.448 14 7 14C3.137 14 0 10.863 0 7C0 3.137 3.137 0 7 0C10.863 0 14 3.137 14 7C14 8.438 13.565 9.776 12.82 10.889L14.934 13.002C15.462 13.53 15.462 14.388 14.934 14.916C14.406 15.444 13.548 15.444 13.02 14.916L10.91 12.806ZM7 2.477C9.497 2.477 11.523 4.503 11.523 7C11.523 9.497 9.497 11.523 7 11.523C4.503 11.523 2.477 9.497 2.477 7C2.477 4.503 4.503 2.477 7 2.477Z" fill="#333333"/>
</svg>
