<svg width="16" height="16" viewBox="0 0 16 16" fill="none" xmlns="http://www.w3.org/2000/svg">
<path fill-rule="evenodd" clip-rule="evenodd" d="M2.56029 1.26074C2.20529 1.09574 1.79429 1.10074 1.44329 1.27574C1.44229 1.27674 1.44229 1.27674 1.44129 1.27774C1.07529 1.45974 0.806286 1.79074 0.701286 2.18574C0.596286 2.58074 0.666286 3.00074 0.893286 3.34074C1.72029 4.58174 2.91529 6.37374 3.55429 7.33374C3.82329 7.73674 3.82329 8.26074 3.55429 8.66374C2.91229 9.62874 1.70829 11.4337 0.880286 12.6757C0.657286 13.0107 0.588286 13.4257 0.691286 13.8147C0.795286 14.2037 1.06029 14.5297 1.42129 14.7097C1.42129 14.7107 1.42229 14.7107 1.42229 14.7107C1.78629 14.8927 2.21329 14.8987 2.58129 14.7267C4.49429 13.8337 10.6603 10.9567 14.2793 9.26774C14.7723 9.03774 15.0873 8.54274 15.0873 7.99874C15.0873 7.45474 14.7723 6.95974 14.2793 6.72974C10.6473 5.03474 4.44829 2.14274 2.56029 1.26074Z" fill="#333333"/>
</svg>
