<svg width="16" height="16" viewBox="0 0 16 16" fill="none" xmlns="http://www.w3.org/2000/svg">
<path fill-rule="evenodd" clip-rule="evenodd" d="M10.7311 1.955C10.9121 2.255 11.2371 2.439 11.5881 2.439C12.1981 2.439 13.1631 2.439 13.7781 2.439C14.1351 2.439 14.4651 2.63 14.6441 2.939C14.9421 3.456 15.4051 4.257 15.7051 4.778C15.8871 5.093 15.8841 5.482 15.6961 5.793C15.4061 6.276 14.9711 6.999 14.6791 7.484C14.4881 7.802 14.4881 8.198 14.6791 8.516C14.9711 9.001 15.4061 9.724 15.6961 10.207C15.8841 10.518 15.8871 10.907 15.7051 11.222C15.4051 11.743 14.9421 12.544 14.6441 13.061C14.4651 13.37 14.1351 13.561 13.7781 13.561C13.1631 13.561 12.1981 13.561 11.5881 13.561C11.2371 13.561 10.9121 13.745 10.7311 14.045C10.4831 14.458 10.1281 15.047 9.88005 15.459C9.69905 15.76 9.37405 15.944 9.02305 15.944C8.44605 15.944 7.55405 15.944 6.97705 15.944C6.62605 15.944 6.30105 15.76 6.12005 15.459C5.87205 15.047 5.51705 14.458 5.26905 14.045C5.08805 13.745 4.76305 13.561 4.41205 13.561C3.80205 13.561 2.83705 13.561 2.22205 13.561C1.86505 13.561 1.53505 13.37 1.35605 13.061C1.05805 12.544 0.595053 11.743 0.295053 11.222C0.113053 10.907 0.116053 10.518 0.304053 10.207C0.594053 9.724 1.02905 9.001 1.32105 8.516C1.51205 8.198 1.51205 7.802 1.32105 7.484C1.02905 6.999 0.594053 6.276 0.304053 5.793C0.116053 5.482 0.113053 5.093 0.295053 4.778C0.595053 4.257 1.05805 3.456 1.35605 2.939C1.53505 2.63 1.86505 2.439 2.22205 2.439C2.83705 2.439 3.80205 2.439 4.41205 2.439C4.76305 2.439 5.08805 2.255 5.26905 1.955C5.51705 1.542 5.87205 0.953 6.12005 0.541C6.30105 0.24 6.62605 0.0559998 6.97705 0.0559998C7.55405 0.0559998 8.44605 0.0559998 9.02305 0.0559998C9.37405 0.0559998 9.69905 0.24 9.88005 0.541C10.1281 0.953 10.4831 1.542 10.7311 1.955ZM8.00005 5C9.65605 5 11.0001 6.344 11.0001 8C11.0001 9.656 9.65605 11 8.00005 11C6.34405 11 5.00005 9.656 5.00005 8C5.00005 6.344 6.34405 5 8.00005 5Z" fill="#333333"/>
</svg>
