<svg width="16" height="16" viewBox="0 0 16 16" fill="none" xmlns="http://www.w3.org/2000/svg">
<path fill-rule="evenodd" clip-rule="evenodd" d="M8.88 3.37C8.96 3.311 9.005 3.217 9.002 3.118C9.001 3.079 9 3.04 9 3C9 1.344 10.344 0 12 0C13.656 0 15 1.344 15 3C15 4.656 13.656 6 12 6C11.255 6 10.574 5.728 10.049 5.278C9.946 5.187 9.794 5.18 9.683 5.261C9.119 5.668 7.494 6.849 7.034 7.183C6.961 7.237 6.926 7.328 6.944 7.417C6.98 7.605 7 7.8 7 8C7 8.2 6.98 8.395 6.943 8.583C6.925 8.672 6.961 8.763 7.034 8.817C7.494 9.151 9.119 10.332 9.682 10.741C9.794 10.822 9.947 10.814 10.05 10.723C10.574 10.272 11.255 10 12 10C13.656 10 15 11.344 15 13C15 14.656 13.656 16 12 16C10.344 16 9 14.656 9 13C9 12.96 9.001 12.921 9.002 12.882C9.006 12.783 8.96 12.689 8.88 12.631C8.374 12.263 6.562 10.946 5.984 10.526C5.878 10.449 5.735 10.447 5.626 10.519C5.158 10.824 4.599 11 4 11C2.344 11 1 9.656 1 8C1 6.344 2.344 5 4 5C4.599 5 5.158 5.176 5.627 5.48C5.735 5.552 5.877 5.549 5.982 5.473C6.562 5.054 8.374 3.737 8.88 3.37Z" fill="#333333"/>
</svg>
