<svg width="16" height="16" viewBox="0 0 16 16" fill="none" xmlns="http://www.w3.org/2000/svg">
<path fill-rule="evenodd" clip-rule="evenodd" d="M11.949 2.57801L13.527 1.00001C13.933 0.593013 14.593 0.593013 15 1.00001C15.407 1.40701 15.407 2.06701 15 2.47301L2.473 15C2.067 15.407 1.407 15.407 1 15C0.593 14.593 0.593 13.933 1 13.527L2.409 12.118C0.823 10.566 0 8.70701 0 8.00001C0 6.69801 2.698 1.48801 8 1.48801C9.536 1.48801 10.853 1.92501 11.949 2.57801ZM14.522 4.89201C15.505 6.16701 16 7.44201 16 8.00001C16 9.30201 13.209 14.512 8 14.512C7.042 14.512 6.166 14.336 5.374 14.04L7.705 11.709C7.802 11.717 7.901 11.721 8 11.721C10.047 11.721 11.721 10.047 11.721 8.00001C11.721 7.90101 11.717 7.80201 11.709 7.70501L14.522 4.89201ZM9.787 4.73901C9.256 4.44601 8.647 4.27901 8 4.27901C5.953 4.27901 4.279 5.95301 4.279 8.00001C4.279 8.64701 4.446 9.25601 4.739 9.78701L6.058 8.46901C6.02 8.31701 6 8.16001 6 8.00001C6 6.85701 6.857 6.00001 8 6.00001C8.163 6.00001 8.321 6.01901 8.471 6.05601L9.787 4.73901Z" fill="#333333"/>
<mask id="mask0_0_2341" style="mask-type:luminance" maskUnits="userSpaceOnUse" x="0" y="0" width="16" height="16">
<path fill-rule="evenodd" clip-rule="evenodd" d="M11.949 2.57801L13.527 1.00001C13.933 0.593013 14.593 0.593013 15 1.00001C15.407 1.40701 15.407 2.06701 15 2.47301L2.473 15C2.067 15.407 1.407 15.407 1 15C0.593 14.593 0.593 13.933 1 13.527L2.409 12.118C0.823 10.566 0 8.70701 0 8.00001C0 6.69801 2.698 1.48801 8 1.48801C9.536 1.48801 10.853 1.92501 11.949 2.57801ZM14.522 4.89201C15.505 6.16701 16 7.44201 16 8.00001C16 9.30201 13.209 14.512 8 14.512C7.042 14.512 6.166 14.336 5.374 14.04L7.705 11.709C7.802 11.717 7.901 11.721 8 11.721C10.047 11.721 11.721 10.047 11.721 8.00001C11.721 7.90101 11.717 7.80201 11.709 7.70501L14.522 4.89201ZM9.787 4.73901C9.256 4.44601 8.647 4.27901 8 4.27901C5.953 4.27901 4.279 5.95301 4.279 8.00001C4.279 8.64701 4.446 9.25601 4.739 9.78701L6.058 8.46901C6.02 8.31701 6 8.16001 6 8.00001C6 6.85701 6.857 6.00001 8 6.00001C8.163 6.00001 8.321 6.01901 8.471 6.05601L9.787 4.73901Z" fill="white"/>
</mask>
<g mask="url(#mask0_0_2341)">
</g>
</svg>
