<svg width="16" height="16" viewBox="0 0 16 16" fill="none" xmlns="http://www.w3.org/2000/svg">
<path fill-rule="evenodd" clip-rule="evenodd" d="M8 1.48801C2.698 1.48801 0 6.69801 0 8.00001C0 9.30201 2.791 14.512 8 14.512C13.209 14.512 16 9.30201 16 8.00001C16 6.69801 13.302 1.48801 8 1.48801ZM8 11.721C5.953 11.721 4.279 10.047 4.279 8.00001C4.279 5.95301 5.953 4.27901 8 4.27901C10.047 4.27901 11.721 5.95301 11.721 8.00001C11.721 10.047 10.047 11.721 8 11.721ZM8 6.00001C9.143 6.00001 10 6.95301 10 8.00001C10 9.14301 9.048 10 8 10C6.857 10 6 9.04801 6 8.00001C6 6.85801 6.857 6.00001 8 6.00001Z" fill="#333333"/>
</svg>
