<svg width="16" height="16" viewBox="0 0 16 16" fill="none" xmlns="http://www.w3.org/2000/svg">
<path fill-rule="evenodd" clip-rule="evenodd" d="M10.9988 10.958V9.301C10.9988 8.818 11.3468 8.426 11.7768 8.426C11.9658 8.426 12.1388 8.502 12.2738 8.628L15.3438 11.217C15.5388 11.377 15.6658 11.635 15.6658 11.926C15.6658 12.217 15.5388 12.475 15.3438 12.634L12.2738 15.223C12.1388 15.35 11.9658 15.426 11.7768 15.426C11.3468 15.426 10.9988 15.034 10.9988 14.551V12.959C10.8868 12.958 10.7748 12.956 10.6628 12.954C10.4708 12.946 10.2808 12.921 10.0948 12.871C9.72684 12.772 9.38383 12.588 9.09883 12.336C8.98984 12.24 8.89284 12.135 8.80084 12.023C8.62184 11.792 8.44384 11.56 8.26584 11.328C8.10184 11.113 8.10084 10.816 8.26384 10.6C8.46284 10.335 8.73184 9.979 8.92984 9.715C8.99484 9.63 9.09484 9.579 9.20284 9.578C9.30984 9.577 9.41084 9.625 9.47784 9.709C9.77184 10.078 10.0728 10.442 10.3828 10.797C10.4718 10.894 10.5908 10.949 10.7218 10.955C10.8138 10.956 10.9068 10.957 10.9988 10.958ZM10.9988 2.951V1.375C10.9988 0.892 11.3468 0.5 11.7768 0.5C11.9658 0.5 12.1388 0.576 12.2738 0.703L15.3438 3.292C15.5388 3.451 15.6658 3.709 15.6658 4C15.6658 4.291 15.5388 4.549 15.3438 4.709L12.2738 7.298C12.1388 7.424 11.9658 7.5 11.7768 7.5C11.3468 7.5 10.9988 7.108 10.9988 6.625V4.942C10.9038 4.945 10.8088 4.95 10.7138 4.957C10.5758 4.971 10.4518 5.036 10.3608 5.14C8.54284 7.354 6.95684 9.749 5.20284 12.014C5.11084 12.127 5.01184 12.234 4.90183 12.331C4.61384 12.585 4.26784 12.77 3.89684 12.87C3.70884 12.92 3.51783 12.945 3.32383 12.954C2.88183 12.961 2.43983 12.955 1.99883 12.955C1.84383 12.95 1.69583 12.921 1.55683 12.852C1.43883 12.794 1.33283 12.713 1.24683 12.614C1.17483 12.532 1.11683 12.439 1.07483 12.338C0.939835 12.011 0.989835 11.627 1.20583 11.346C1.25883 11.277 1.32083 11.215 1.38983 11.162C1.49383 11.082 1.61383 11.023 1.73983 10.989C1.80383 10.972 1.86783 10.964 1.93283 10.957C2.38683 10.942 2.84183 10.986 3.29383 10.953C3.42583 10.94 3.54283 10.878 3.62983 10.779C5.44684 8.565 7.03484 6.172 8.78684 3.906C8.91184 3.754 9.04784 3.614 9.20284 3.493C9.50883 3.253 9.86884 3.086 10.2478 3.008C10.3928 2.978 10.5388 2.963 10.6858 2.956C10.7898 2.955 10.8948 2.953 10.9988 2.951ZM5.05184 6.3C4.98584 6.386 4.88283 6.435 4.77483 6.434C4.66583 6.433 4.56484 6.382 4.49984 6.295C4.21384 5.91 3.92684 5.526 3.63883 5.142C3.62683 5.126 3.61383 5.111 3.59983 5.096C3.51583 5.01 3.40583 4.961 3.28584 4.955C2.85684 4.949 2.42783 4.955 1.99883 4.955C1.93283 4.953 1.86883 4.949 1.80383 4.936C1.67483 4.91 1.55184 4.859 1.44283 4.787C1.35283 4.726 1.27183 4.65 1.20583 4.564C0.989835 4.283 0.939835 3.899 1.07483 3.572C1.10783 3.492 1.15183 3.416 1.20583 3.346C1.28483 3.242 1.38483 3.155 1.49883 3.089C1.63383 3.011 1.77883 2.972 1.93283 2.957C2.40383 2.942 2.87384 2.949 3.34484 2.956C3.53584 2.964 3.72383 2.989 3.90883 3.039C4.27284 3.137 4.61283 3.319 4.89483 3.569C5.00283 3.664 5.09983 3.768 5.19083 3.879C5.38684 4.134 5.58083 4.39 5.77283 4.648C5.93383 4.865 5.93083 5.162 5.76583 5.375C5.55483 5.649 5.26383 6.025 5.05184 6.3Z" fill="#333333"/>
</svg>
