<svg width="16" height="16" viewBox="0 0 16 16" fill="none" xmlns="http://www.w3.org/2000/svg">
<path fill-rule="evenodd" clip-rule="evenodd" d="M16 11.489C16 13.257 14.401 14.057 14.401 14.057L11.717 15.848C11.717 15.848 11.717 15.849 11.716 15.849C11.355 16.044 10.917 16.035 10.565 15.824C10.212 15.613 9.997 15.233 9.998 14.822C9.999 14.725 9.999 14.667 9.999 14.667V14H7C5.896 14 5 13.104 5 12V10C5 9.448 5.448 9 6 9C6.552 9 7 9.448 7 10V11.403C7 11.732 7.267 12 7.597 12H9.999L10 9V5.692C10 3.896 11.503 3.229 11.503 3.229L13.731 2.098C13.637 2.036 13.524 2 13.403 2H7.597C7.267 2 7 2.268 7 2.597V4C7 4.552 6.552 5 6 5C5.448 5 5 4.552 5 4V2C5 0.896 5.896 0 7 0H14C15.104 0 16 0.896 16 2V11.489ZM0.307 6.278L2.293 4.293C2.683 3.903 3.317 3.903 3.707 4.293C4.097 4.683 4.097 5.317 3.707 5.707L3.414 6H7C7.552 6 8 6.448 8 7C8 7.552 7.552 8 7 8H3.414L3.707 8.293C4.097 8.683 4.097 9.317 3.707 9.707C3.317 10.097 2.683 10.097 2.293 9.707L0.307 7.722C0.302 7.717 0.298 7.712 0.293 7.707C0.144 7.559 0.052 7.376 0.017 7.184V7.183L0.016 7.182V7.179V7.178V7.177L0.015 7.174V7.173V7.171L0.014 7.168V7.167C0.008 7.134 0.004 7.101 0.002 7.066V7.064V7.061V7.06V7.058V7.055L0.001 7.054V7.053V7.051V7.05V7.048V7.047V7.045V7.044V7.042V7.04V7.039V7.038V7.036V7.034V7.032H0V7.03V7.027V7.026V7.025V7.024V7.02V7.019V7.018V7.013V6.994V6.992V6.988V6.987V6.985V6.982V6.981V6.978V6.976V6.975V6.974V6.972V6.97V6.969L0.001 6.968V6.965V6.964V6.963V6.961V6.958C0.003 6.899 0.011 6.841 0.023 6.786C0.062 6.605 0.152 6.433 0.293 6.293C0.298 6.288 0.302 6.283 0.307 6.278Z" fill="#333333"/>
</svg>
