<svg width="16" height="16" viewBox="0 0 16 16" fill="none" xmlns="http://www.w3.org/2000/svg">
<path fill-rule="evenodd" clip-rule="evenodd" d="M7.597 2.01099C7.369 2.01099 7.17 2.13899 7.07 2.32799C7.069 2.32999 7.066 2.33399 7.066 2.33399C7.066 2.33399 7.065 2.33699 7.062 2.34199C6.786 2.84399 6.168 3.04599 5.649 2.80299C5.13 2.55999 4.888 1.95599 5.097 1.42299C5.186 1.19499 5.235 1.06999 5.235 1.06999C5.235 1.06999 5.236 1.06899 5.236 1.06799C5.573 0.438986 6.237 0.0109863 7 0.0109863H14C15.104 0.0109863 16 0.906986 16 2.01099V11.5C16 13.268 14.401 14.068 14.401 14.068L11.717 15.859L11.716 15.86C11.355 16.055 10.917 16.046 10.565 15.835C10.212 15.624 9.997 15.243 9.998 14.833C9.999 14.736 9.999 14.678 9.999 14.678V14.011H6.993C6.23 14.011 5.566 13.582 5.229 12.953C5.228 12.953 5.228 12.952 5.228 12.952C5.228 12.952 5.179 12.827 5.09 12.599C4.881 12.065 5.122 11.461 5.641 11.218C6.16 10.976 6.779 11.177 7.055 11.679L7.063 11.694C7.163 11.882 7.361 12.011 7.59 12.011H9.999L10 9.01099V5.70299C10 3.90599 11.503 3.23999 11.503 3.23999L13.925 2.01099H7.597ZM4.586 6.01099L4.293 5.71799C3.903 5.32799 3.903 4.69399 4.293 4.30399C4.683 3.91299 5.317 3.91299 5.707 4.30399L7.693 6.28899C7.698 6.29399 7.702 6.29899 7.707 6.30399C7.848 6.44399 7.938 6.61599 7.977 6.79599C7.989 6.85199 7.997 6.90999 7.999 6.96799L8 6.99899V7.04199L7.999 7.04299V7.06499L7.998 7.06599V7.07699C7.996 7.11099 7.992 7.14499 7.986 7.17799L7.985 7.18199V7.18499L7.984 7.18799V7.19199L7.983 7.19399V7.19499C7.948 7.38599 7.856 7.56999 7.707 7.71799C7.702 7.72299 7.698 7.72799 7.693 7.73199L5.707 9.71799C5.317 10.108 4.683 10.108 4.293 9.71799C3.903 9.32799 3.903 8.69399 4.293 8.30399L4.586 8.01099H1C0.448 8.01099 0 7.56299 0 7.01099C0 6.45899 0.448 6.01099 1 6.01099H4.586Z" fill="#333333"/>
</svg>
