<svg width="16" height="16" viewBox="0 0 16 16" fill="none" xmlns="http://www.w3.org/2000/svg">
<path fill-rule="evenodd" clip-rule="evenodd" d="M7.813 14C7.401 15.16 6.293 15.992 4.992 15.992C3.691 15.992 2.583 15.16 2.171 14H2C1.448 14 1 13.552 1 13C1 12.448 1.448 12 2 12H2.171C2.583 10.84 3.691 10.008 4.992 10.008C6.293 10.008 7.401 10.84 7.813 12H14C14.552 12 15 12.448 15 13C15 13.552 14.552 14 14 14H7.813ZM4.992 12C5.544 12 5.992 12.448 5.992 13C5.992 13.552 5.544 14 4.992 14C4.44 14 3.992 13.552 3.992 13C3.992 12.448 4.44 12 4.992 12ZM9.187 7.008C9.599 5.847 10.707 5.015 12.008 5.015C13.659 5.015 15 6.356 15 8.008C15 9.659 13.659 11 12.008 11C10.707 11 9.599 10.168 9.187 9.008H2C1.448 9.008 1 8.56 1 8.008C1 7.456 1.448 7.008 2 7.008H9.187ZM12 7.008C12.552 7.008 13 7.456 13 8.008C13 8.56 12.552 9.008 12 9.008C11.448 9.008 11 8.56 11 8.008C11 7.456 11.448 7.008 12 7.008ZM8.811 4.008C8.396 5.164 7.29 5.992 5.992 5.992C4.694 5.992 3.588 5.164 3.174 4.008H2C1.448 4.008 1 3.56 1 3.008C1 2.456 1.448 2.008 2 2.008H3.169C3.578 0.842996 4.689 0.00799561 5.992 0.00799561C7.296 0.00799561 8.406 0.842996 8.816 2.008H14C14.552 2.008 15 2.456 15 3.008C15 3.56 14.552 4.008 14 4.008H8.811ZM5.992 2C6.544 2 6.992 2.448 6.992 3C6.992 3.552 6.544 4 5.992 4C5.44 4 4.992 3.552 4.992 3C4.992 2.448 5.44 2 5.992 2Z" fill="#333333"/>
</svg>
