<svg width="16" height="16" viewBox="0 0 16 16" fill="none" xmlns="http://www.w3.org/2000/svg">
<g clip-path="url(#clip0_4035_1596)">
<path d="M13.9873 13.9912C13.9873 7.36768 8.61175 1.99213 1.98825 1.99213C1.43575 1.99213 0.987305 1.54368 0.987305 0.99118C0.987305 0.43868 1.43575 -0.00976562 1.98825 -0.00976562C9.71675 -0.00976562 15.9892 6.26268 15.9892 13.9912C15.9892 14.5437 15.5408 14.9921 14.9883 14.9921C14.4358 14.9921 13.9873 14.5437 13.9873 13.9912Z" fill="#333333"/>
<path d="M1.98819 5.99005C6.40269 5.99005 9.98926 9.57662 9.98926 13.9911C9.98926 14.5446 10.4347 14.9901 10.9882 14.9901C11.5417 14.9901 11.9871 14.5446 11.9871 13.9911C11.9871 8.47412 7.50519 3.99219 1.98819 3.99219C1.43469 3.99219 0.989258 4.43762 0.989258 4.99112C0.989258 5.54462 1.43469 5.99005 1.98819 5.99005Z" fill="#333333"/>
<path d="M5.99121 13.9902C5.99121 11.7827 4.1987 9.9902 1.9912 9.9902C1.4387 9.9902 0.991211 9.54272 0.991211 8.99022C0.991211 8.43772 1.4387 7.99023 1.9912 7.99023C5.3037 7.99023 7.99118 10.6777 7.99118 13.9902C7.99118 14.5427 7.5437 14.9902 6.9912 14.9902C6.4387 14.9902 5.99121 14.5427 5.99121 13.9902Z" fill="#333333"/>
<path d="M3.9917 13.9902C3.9917 15.0948 3.09627 15.9902 1.9917 15.9902C0.88713 15.9902 -0.00830078 15.0948 -0.00830078 13.9902C-0.00830078 12.8857 0.88713 11.9902 1.9917 11.9902C3.09627 11.9902 3.9917 12.8857 3.9917 13.9902Z" fill="#333333"/>
</g>
<defs>
<clipPath id="clip0_4035_1596">
<rect width="16" height="16" fill="white"/>
</clipPath>
</defs>
</svg>
