<svg width="16" height="16" viewBox="0 0 16 16" fill="none" xmlns="http://www.w3.org/2000/svg">
<path fill-rule="evenodd" clip-rule="evenodd" d="M12 8C12 7.448 12.448 7 13 7C13.552 7 14 7.448 14 8C14 8.003 14 8.007 14 8.01V8.027C14 11.353 11.299 14.054 7.973 14.054C7.642 14.054 7.317 14.027 7 13.975V15.125C7 15.608 6.652 16 6.222 16C6.033 16 5.86 15.924 5.725 15.798L2.655 13.208C2.46 13.049 2.333 12.791 2.333 12.5C2.333 12.209 2.46 11.951 2.655 11.792L5.725 9.202C5.86 9.076 6.033 9 6.222 9C6.652 9 7 9.392 7 9.875V11.935C7.312 12.013 7.638 12.054 7.973 12.054C10.196 12.054 12 10.249 12 8.027V8ZM9 2.078V0.875C9 0.392 9.348 0 9.778 0C9.967 0 10.14 0.076 10.275 0.202L13.345 2.792C13.54 2.951 13.667 3.209 13.667 3.5C13.667 3.791 13.54 4.049 13.345 4.208L10.275 6.798C10.14 6.924 9.967 7 9.778 7C9.348 7 9 6.608 9 6.125V4.119C8.688 4.041 8.362 4 8.027 4C5.813 4 4.015 5.79 4 8C4 8.552 3.552 9 3 9C2.448 9 2 8.552 2 8C2 7.993 2 7.986 2 7.979C2.026 4.675 4.716 2 8.027 2C8.358 2 8.683 2.027 9 2.078Z" fill="#333333"/>
</svg>
