<svg width="16" height="16" viewBox="0 0 16 16" fill="none" xmlns="http://www.w3.org/2000/svg">
<path fill-rule="evenodd" clip-rule="evenodd" d="M13 15H3C1.896 15 1 14.104 1 13V3C1 1.896 1.896 1 3 1H13C14.104 1 15 1.896 15 3V13C15 14.104 14.104 15 13 15ZM7.551 3H3.449C3.201 3 3 3.201 3 3.449V12.551C3 12.799 3.201 13 3.449 13H12.646C12.841 13 13 12.841 13 12.646V5.354C13 5.159 12.841 5 12.646 5C12.646 5 9.539 5 8.407 5C8.299 5 8.195 4.957 8.119 4.881C8.043 4.805 8 4.701 8 4.593C8 4.133 8 3.449 8 3.449C8 3.201 7.799 3 7.551 3ZM8.5 6C8.776 6 9 6.224 9 6.5V8H10.5C10.776 8 11 8.224 11 8.5V9.5C11 9.776 10.776 10 10.5 10H9V11.5C9 11.776 8.776 12 8.5 12H7.5C7.224 12 7 11.776 7 11.5V10H5.5C5.224 10 5 9.776 5 9.5V8.5C5 8.224 5.224 8 5.5 8H7V6.5C7 6.224 7.224 6 7.5 6H8.5ZM6.5 4C6.776 4 7 4.224 7 4.5C7 4.776 6.776 5 6.5 5H4.634C4.358 5 4.134 4.776 4.134 4.5C4.134 4.224 4.358 4 4.634 4H6.5Z" fill="#333333"/>
</svg>
