<svg width="16" height="16" viewBox="0 0 16 16" fill="none" xmlns="http://www.w3.org/2000/svg">
<path fill-rule="evenodd" clip-rule="evenodd" d="M10.408 8.509C10.735 8.509 11 8.774 11 9.101C11 9.237 10.954 9.362 10.877 9.462L8.486 12.769L8.485 12.77L8.484 12.772C8.375 12.921 8.199 13.018 8 13.018C7.8 13.018 7.623 12.92 7.514 12.769L5.117 9.454C5.044 9.355 5 9.233 5 9.101C5 8.774 5.265 8.509 5.592 8.509H10.408ZM10.408 6.509H5.592C5.265 6.509 5 6.244 5 5.917C5 5.785 5.044 5.663 5.117 5.564L7.514 2.249C7.623 2.098 7.8 2 8 2C8.199 2 8.375 2.097 8.484 2.246L8.486 2.249L10.877 5.556C10.954 5.656 11 5.781 11 5.917C11 6.244 10.735 6.509 10.408 6.509Z" fill="#333333"/>
</svg>
