<svg width="16" height="16" viewBox="0 0 16 16" fill="none" xmlns="http://www.w3.org/2000/svg">
<path fill-rule="evenodd" clip-rule="evenodd" d="M8 0C12.415 0 16 3.585 16 8C16 12.415 12.415 16 8 16C3.585 16 0 12.415 0 8C0 3.585 3.585 0 8 0ZM8 2C11.312 2 14 4.688 14 8C14 11.312 11.312 14 8 14C4.688 14 2 11.312 2 8C2 4.688 4.688 2 8 2ZM6.825 11.306C6.825 11.869 7.283 12.327 7.846 12.327C8.409 12.327 8.868 11.869 8.868 11.306C8.868 10.743 8.409 10.284 7.846 10.284C7.283 10.284 6.825 10.743 6.825 11.306ZM7.841 3.524C5.725 3.623 5.106 5.259 5.106 5.966C5.106 6.28 5.106 6.882 5.801 6.959C6.456 7.032 6.705 6.591 6.835 6.213C6.926 5.95 7.219 5.225 8.096 5.225C8.724 5.225 9.096 5.599 9.096 6.149C9.096 7.249 6.958 7.251 6.958 8.875C6.958 9.425 7.454 9.561 7.757 9.561C7.968 9.561 8.313 9.554 8.505 9.17C8.914 8.35 10.894 8.025 10.894 6C10.894 4.697 9.726 3.436 7.841 3.524Z" fill="#333333"/>
</svg>
