<svg width="16" height="16" viewBox="0 0 16 16" fill="none" xmlns="http://www.w3.org/2000/svg">
<path d="M6.44467 10.092C6.44467 10.4809 6.63911 10.967 6.63911 10.967H9.26411C9.26411 8.43924 12.7641 8.43924 12.7641 4.84202C12.7641 2.80035 10.9169 0.953125 8.09745 0.953125C4.20855 0.953125 3.23633 4.25868 3.23633 4.25868L5.66689 5.32813C5.66689 5.32813 6.153 3.77257 8.00022 3.77257C9.06967 3.77257 9.75022 4.45313 9.75022 5.23091C9.75022 7.27258 6.44467 7.27258 6.44467 10.092ZM6.25022 13.592C6.25022 14.3698 6.93078 15.0504 7.80578 15.0504C8.68078 15.0504 9.36134 14.3698 9.36134 13.592C9.36134 12.8142 8.68078 12.1337 7.80578 12.1337C6.93078 12.1337 6.25022 12.8142 6.25022 13.592Z" fill="#333333"/>
</svg>
