<svg width="16" height="16" viewBox="0 0 16 16" fill="none" xmlns="http://www.w3.org/2000/svg">
<path fill-rule="evenodd" clip-rule="evenodd" d="M13 15H3C1.896 15 1 14.104 1 13V3C1 1.896 1.896 1 2.999 1C2.999 0.448 3.447 0 3.999 0C4.551 0 4.999 0.448 4.999 1H10.999C10.999 0.448 11.447 0 11.999 0C12.551 0 12.999 0.448 12.999 1H13C14.104 1 15 1.896 15 3V13C15 14.104 14.104 15 13 15ZM11.63 5.542C11.23 5.142 10.63 5.142 10.23 5.542L7.4 8.372L6.106 7.078C5.706 6.678 5.106 6.678 4.706 7.078C4.306 7.478 4.306 8.078 4.706 8.478L6.7 10.472C6.9 10.672 7.1 10.772 7.4 10.772C7.7 10.772 7.9 10.672 8.1 10.472L11.63 6.942C12.03 6.542 12.03 5.942 11.63 5.542Z" fill="#333333"/>
</svg>
