<svg width="16" height="16" viewBox="0 0 16 16" fill="none" xmlns="http://www.w3.org/2000/svg">
<path fill-rule="evenodd" clip-rule="evenodd" d="M6.682 5.843C6.747 5.807 6.816 5.777 6.884 5.75C7.095 5.667 7.313 5.622 7.538 5.599C7.621 5.594 7.703 5.592 7.786 5.593C8.001 5.603 8.213 5.639 8.417 5.711C8.565 5.763 8.706 5.832 8.838 5.917C8.935 5.979 9.026 6.049 9.11 6.126C9.629 6.598 9.861 7.291 9.922 7.973C9.941 8.184 9.95 8.4 9.929 8.611C9.909 8.8 9.864 8.986 9.795 9.163C9.661 9.506 9.438 9.805 9.181 10.067C8.906 10.348 8.594 10.591 8.301 10.853C8.227 10.921 8.155 10.99 8.084 11.06C7.862 11.289 7.665 11.541 7.549 11.84C7.453 12.09 7.417 12.358 7.419 12.625C7.419 12.73 7.426 12.835 7.437 12.939C7.446 13.024 7.457 13.108 7.479 13.191C7.575 13.553 7.806 13.878 8.106 14.1C8.378 14.302 8.704 14.416 9.037 14.467C9.172 14.487 9.306 14.492 9.441 14.499C9.508 14.498 9.575 14.498 9.642 14.494C9.997 14.463 10.338 14.354 10.659 14.198C11.021 14.023 11.355 13.792 11.663 13.534C12.124 13.148 12.525 12.693 12.877 12.206C13.22 11.731 13.52 11.222 13.765 10.689C13.904 10.386 14.026 10.074 14.119 9.753C14.189 9.512 14.244 9.265 14.267 9.015C14.279 8.89 14.276 8.767 14.274 8.642C14.276 8.598 14.276 8.598 14.281 8.554C14.293 8.48 14.312 8.409 14.343 8.341C14.425 8.165 14.574 8.025 14.755 7.956C14.811 7.934 14.868 7.922 14.927 7.912C14.972 7.908 15.015 7.906 15.06 7.907C15.15 7.914 15.236 7.931 15.319 7.966C15.373 7.989 15.425 8.019 15.472 8.055C15.628 8.17 15.734 8.346 15.765 8.537C15.783 8.65 15.78 8.768 15.777 8.883C15.773 9.065 15.755 9.247 15.727 9.427C15.708 9.551 15.684 9.675 15.656 9.797C15.628 9.923 15.595 10.048 15.559 10.172C15.326 10.975 14.957 11.739 14.518 12.449C13.88 13.479 13.068 14.427 12.062 15.112C11.432 15.541 10.717 15.869 9.957 15.969C9.823 15.986 9.688 15.997 9.553 15.999C9.518 16 9.484 16 9.45 15.999C9.336 16.003 9.221 15.993 9.108 15.984C8.853 15.963 8.599 15.92 8.352 15.853C7.995 15.754 7.652 15.603 7.343 15.397C6.769 15.014 6.324 14.445 6.096 13.793C6 13.517 5.953 13.232 5.931 12.941C5.895 12.45 5.936 11.951 6.086 11.481C6.19 11.157 6.345 10.851 6.539 10.572C6.681 10.369 6.843 10.181 7.017 10.006C7.317 9.702 7.655 9.439 7.97 9.152C8.017 9.107 8.064 9.063 8.11 9.017C8.237 8.884 8.368 8.737 8.418 8.555C8.454 8.424 8.441 8.282 8.431 8.149C8.426 8.081 8.419 8.013 8.409 7.945C8.402 7.898 8.393 7.851 8.383 7.804C8.327 7.552 8.215 7.259 7.963 7.144C7.929 7.128 7.893 7.116 7.857 7.108C7.738 7.081 7.612 7.09 7.496 7.125C7.457 7.137 7.419 7.153 7.382 7.17C7.352 7.186 7.322 7.202 7.293 7.221C7.263 7.243 7.235 7.265 7.208 7.291C7.173 7.328 7.141 7.369 7.116 7.415C7.078 7.487 7.059 7.568 7.048 7.648C7.032 7.756 7.031 7.866 7.035 7.975C7.038 8.046 7.047 8.116 7.047 8.187C7.046 8.224 7.042 8.26 7.037 8.297C7.018 8.4 6.982 8.497 6.925 8.585C6.751 8.852 6.418 8.981 6.11 8.902C6.024 8.88 5.942 8.842 5.869 8.792C5.79 8.737 5.721 8.666 5.669 8.586C5.616 8.505 5.579 8.414 5.561 8.319C5.549 8.26 5.546 8.198 5.542 8.137C5.535 8.036 5.532 7.936 5.533 7.835C5.536 7.635 5.556 7.437 5.598 7.242C5.669 6.911 5.822 6.6 6.043 6.343C6.194 6.167 6.376 6.018 6.577 5.9C6.612 5.88 6.647 5.861 6.682 5.843ZM1.792 11.141C1.995 11.156 2.185 11.245 2.319 11.4C2.363 11.451 2.398 11.508 2.428 11.568C2.45 11.615 2.467 11.663 2.486 11.711C2.518 11.794 2.552 11.875 2.588 11.956C2.885 12.615 3.291 13.229 3.836 13.709C3.932 13.793 4.031 13.873 4.136 13.945C4.197 13.987 4.262 14.022 4.323 14.064C4.354 14.087 4.383 14.112 4.411 14.138C4.499 14.228 4.565 14.334 4.602 14.455C4.624 14.528 4.635 14.605 4.635 14.681C4.631 14.994 4.426 15.279 4.13 15.382C4.04 15.413 3.943 15.427 3.848 15.422C3.752 15.417 3.657 15.394 3.57 15.354C3.469 15.307 3.375 15.243 3.283 15.179C3.099 15.052 2.924 14.909 2.759 14.757C2.095 14.148 1.58 13.385 1.216 12.563C1.171 12.463 1.129 12.361 1.089 12.259C1.047 12.152 1.009 12.05 1.002 11.935C0.983997 11.632 1.156 11.342 1.429 11.212C1.525 11.166 1.628 11.144 1.735 11.14C1.764 11.14 1.763 11.14 1.792 11.141ZM7.833 3.05C8.084 3.056 8.334 3.071 8.583 3.104C9.088 3.173 9.582 3.313 10.044 3.529C10.47 3.728 10.86 3.991 11.218 4.294C11.909 4.876 12.465 5.614 12.77 6.468C13.066 7.297 13.112 8.195 12.969 9.06C12.909 9.425 12.819 9.785 12.687 10.13C12.549 10.489 12.366 10.83 12.14 11.142C11.942 11.415 11.714 11.665 11.466 11.894C11.01 12.317 10.495 12.668 9.983 13.019L9.94 13.046C9.806 13.12 9.662 13.159 9.508 13.149C9.202 13.128 8.933 12.916 8.842 12.622C8.817 12.543 8.806 12.459 8.809 12.375C8.812 12.275 8.836 12.175 8.878 12.084C8.929 11.976 9.004 11.888 9.094 11.812C9.185 11.745 9.28 11.683 9.373 11.619C9.484 11.542 9.594 11.464 9.705 11.386C10.032 11.148 10.356 10.902 10.635 10.608C10.866 10.366 11.062 10.093 11.203 9.789C11.339 9.497 11.422 9.186 11.48 8.869C11.595 8.24 11.573 7.577 11.357 6.972C11.141 6.367 10.739 5.852 10.251 5.44C9.921 5.162 9.556 4.929 9.149 4.779C8.844 4.667 8.524 4.601 8.201 4.57C7.895 4.542 7.585 4.539 7.281 4.582C6.504 4.692 5.744 5.07 5.23 5.669C5.095 5.826 4.977 5.998 4.883 6.182C4.701 6.538 4.618 6.934 4.585 7.33C4.558 7.66 4.575 7.992 4.625 8.32C4.701 8.817 4.846 9.302 4.971 9.788C5.009 9.94 5.044 10.091 5.077 10.244C5.126 10.49 5.166 10.738 5.184 10.989C5.2 11.196 5.199 11.403 5.188 11.61L5.183 11.66C5.16 11.811 5.103 11.949 5.001 12.065C4.786 12.308 4.427 12.385 4.131 12.252C4.055 12.218 3.984 12.17 3.924 12.113C3.79 11.986 3.706 11.811 3.691 11.627C3.684 11.531 3.696 11.434 3.697 11.338C3.696 11.259 3.693 11.179 3.688 11.1C3.665 10.824 3.612 10.557 3.55 10.288C3.467 9.954 3.375 9.622 3.292 9.288C3.206 8.924 3.133 8.559 3.098 8.187C3.053 7.719 3.067 7.248 3.141 6.784C3.175 6.572 3.22 6.36 3.283 6.154C3.361 5.897 3.465 5.648 3.594 5.411C3.703 5.211 3.829 5.019 3.97 4.84C4.664 3.954 5.702 3.362 6.8 3.143C7.068 3.089 7.338 3.061 7.61 3.051C7.722 3.049 7.721 3.05 7.833 3.05ZM2.201 3.01C2.312 3.019 2.418 3.046 2.517 3.1C2.789 3.247 2.945 3.556 2.902 3.863C2.888 3.958 2.856 4.051 2.808 4.135C2.765 4.208 2.711 4.274 2.664 4.345C2.619 4.415 2.576 4.486 2.535 4.559C2.25 5.084 2.059 5.657 1.926 6.239C1.823 6.691 1.756 7.151 1.731 7.614C1.712 7.967 1.718 8.322 1.76 8.673C1.776 8.807 1.797 8.941 1.825 9.074C1.844 9.165 1.869 9.255 1.891 9.346C1.898 9.386 1.898 9.386 1.903 9.428C1.912 9.567 1.891 9.703 1.828 9.829C1.698 10.093 1.416 10.259 1.122 10.246C1.039 10.242 0.956998 10.224 0.879997 10.194C0.790998 10.159 0.707997 10.106 0.637997 10.039C0.567997 9.972 0.511997 9.892 0.471997 9.804C0.440997 9.736 0.423997 9.664 0.404997 9.592C0.378997 9.488 0.355997 9.383 0.335997 9.277C0.274997 8.957 0.240997 8.631 0.227997 8.305C0.200997 7.644 0.257997 6.98 0.375997 6.33C0.488997 5.712 0.657997 5.102 0.895997 4.52C1.026 4.201 1.178 3.889 1.361 3.597C1.408 3.522 1.457 3.449 1.509 3.377C1.548 3.322 1.588 3.268 1.637 3.22C1.706 3.153 1.788 3.1 1.878 3.063C1.942 3.037 2.009 3.023 2.077 3.013C2.119 3.01 2.159 3.009 2.201 3.01ZM7.833 0.219003C8.609 0.231003 9.378 0.350003 10.118 0.587003C11.786 1.122 13.244 2.231 14.212 3.69C14.497 4.119 14.739 4.577 14.933 5.054C15.031 5.294 15.113 5.538 15.188 5.785L15.202 5.837C15.212 5.89 15.22 5.942 15.221 5.996C15.222 6.121 15.191 6.246 15.132 6.356C15.09 6.435 15.034 6.506 14.967 6.565C14.913 6.613 14.853 6.652 14.788 6.682C14.525 6.806 14.206 6.763 13.985 6.574C13.887 6.492 13.82 6.388 13.77 6.272C13.736 6.173 13.707 6.072 13.675 5.972C13.592 5.735 13.5 5.502 13.392 5.276C13.159 4.79 12.864 4.336 12.516 3.926C12.142 3.486 11.708 3.098 11.228 2.776C10.744 2.451 10.215 2.194 9.66 2.015C8.62 1.682 7.493 1.628 6.426 1.859C5.882 1.977 5.361 2.17 4.866 2.423L4.818 2.446C4.699 2.491 4.578 2.514 4.451 2.502C4.362 2.493 4.275 2.468 4.195 2.429C3.934 2.301 3.767 2.026 3.775 1.736C3.776 1.664 3.789 1.593 3.811 1.525C3.849 1.406 3.917 1.297 4.008 1.211C4.048 1.174 4.09 1.144 4.136 1.114C4.216 1.069 4.298 1.029 4.38 0.989003C4.863 0.759003 5.364 0.574003 5.883 0.445003C6.378 0.322003 6.882 0.254003 7.391 0.226003C7.538 0.221003 7.685 0.218003 7.833 0.219003Z" fill="#333333"/>
</svg>
