<svg width="16" height="16" viewBox="0 0 16 16" fill="none" xmlns="http://www.w3.org/2000/svg">
<path fill-rule="evenodd" clip-rule="evenodd" d="M12.264 2.278C14.232 3.636 15.524 5.907 15.524 8.476C15.524 12.629 12.152 16 8.00001 16C3.84801 16 0.476013 12.629 0.476013 8.476C0.476013 5.907 1.76801 3.636 3.73601 2.278C3.73601 2.278 3.74701 2.272 3.76801 2.258C4.22501 1.968 4.82801 2.086 5.14201 2.527C5.45601 2.968 5.36901 3.577 4.94601 3.913C4.81001 4.021 4.73701 4.079 4.73701 4.079C3.39401 5.078 2.52401 6.676 2.52401 8.476C2.52401 11.499 4.97701 13.953 8.00001 13.953C11.023 13.953 13.476 11.499 13.476 8.476C13.476 6.676 12.606 5.078 11.263 4.079C11.263 4.079 11.201 4.03 11.084 3.936C10.659 3.599 10.573 2.989 10.887 2.548C11.201 2.106 11.806 1.988 12.264 2.278ZM9.00001 1C9.00001 0.448 8.55201 0 8.00001 0C7.44801 0 7.00001 0.448 7.00001 1V8.015C7.00001 8.567 7.44801 9.015 8.00001 9.015C8.55201 9.015 9.00001 8.567 9.00001 8.015V1Z" fill="#333333"/>
</svg>
