<svg width="16" height="16" viewBox="0 0 16 16" fill="none" xmlns="http://www.w3.org/2000/svg">
<path fill-rule="evenodd" clip-rule="evenodd" d="M3 9V14H13V9H12C11.448 9 11 8.552 11 8C11 7.448 11.448 7 12 7H14C14.552 7 15 7.448 15 8V15C15 15.225 14.925 15.433 14.8 15.6C14.617 15.843 14.327 16 14 16H2C1.673 16 1.383 15.843 1.201 15.6C1.075 15.433 1 15.225 1 15V8C1 7.448 1.448 7 2 7H4C4.552 7 5 7.448 5 8C5 8.552 4.552 9 4 9H3ZM8.006 1C8.016 1 8.026 1 8.036 1.001C8.048 1.001 8.059 1.002 8.071 1.003C8.075 1.003 8.079 1.003 8.083 1.003C8.145 1.009 8.207 1.02 8.267 1.036C8.279 1.04 8.292 1.043 8.304 1.047C8.32 1.052 8.337 1.058 8.354 1.064C8.361 1.067 8.368 1.07 8.375 1.073C8.388 1.078 8.402 1.084 8.415 1.09C8.421 1.093 8.426 1.095 8.432 1.098C8.489 1.125 8.543 1.158 8.595 1.196L8.598 1.199C8.629 1.222 8.658 1.247 8.687 1.273C8.694 1.28 8.7 1.287 8.707 1.293L11.415 4C11.805 4.391 11.805 5.024 11.415 5.415C11.024 5.805 10.391 5.805 10 5.415L9 4.415V12C9 12.552 8.552 13 8 13C7.448 13 7 12.552 7 12V4.415L6 5.415C5.609 5.805 4.976 5.805 4.585 5.415C4.195 5.024 4.195 4.391 4.585 4L7.293 1.293C7.31 1.276 7.327 1.26 7.345 1.245L7.349 1.241C7.356 1.235 7.362 1.23 7.369 1.225L7.374 1.221C7.396 1.202 7.42 1.185 7.443 1.169C7.449 1.166 7.454 1.162 7.46 1.158C7.465 1.155 7.471 1.151 7.476 1.148L7.481 1.145L7.486 1.142C7.54 1.11 7.596 1.083 7.654 1.062C7.659 1.06 7.664 1.058 7.669 1.056C7.73 1.035 7.793 1.019 7.856 1.01L7.862 1.009H7.868C7.908 1.003 7.948 1.001 7.988 1H7.994H8H8.006Z" fill="#333333"/>
</svg>
