<svg width="16" height="16" viewBox="0 0 16 16" fill="none" xmlns="http://www.w3.org/2000/svg">
<path fill-rule="evenodd" clip-rule="evenodd" d="M7.627 13.203L11.864 8.966L14.034 11.136L10.882 14.288L9.797 15.373C9.796 15.374 9.554 15.598 9.085 15.687C8.417 15.813 7.931 15.904 7.464 15.993C7.331 16.018 7.196 15.975 7.104 15.896C7.025 15.804 6.982 15.669 7.007 15.536C7.096 15.069 7.187 14.583 7.313 13.915C7.402 13.447 7.625 13.205 7.627 13.203ZM5.557 14H2.013C1.461 14 1.013 13.552 1.013 13V12.7C1.013 10.22 3.023 8.206 5.501 8.2V7.404C4.611 6.883 4.013 5.917 4.013 4.813V3C4.013 1.344 5.357 0 7.013 0C8.669 0 10.013 1.344 10.013 3V4.813C10.013 5.917 9.415 6.883 8.525 7.404V8.2C8.94 8.201 9.342 8.259 9.724 8.365C8.651 9.437 6.397 11.693 6.398 11.694C6.394 11.698 5.889 12.246 5.688 13.305L5.557 14ZM14.551 7.188C14.3 6.937 13.893 6.937 13.642 7.188L12.786 8.044L14.956 10.214L15.812 9.358C16.063 9.107 16.063 8.7 15.812 8.449L14.551 7.188Z" fill="#333333"/>
</svg>
