<svg width="16" height="16" viewBox="0 0 16 16" fill="none" xmlns="http://www.w3.org/2000/svg">
<g clip-path="url(#clip0_2929_71)">
<path fill-rule="evenodd" clip-rule="evenodd" d="M15.998 13.9961H5.99803C5.99803 12.9361 6.41903 11.916 7.17003 11.166C7.92003 10.416 8.93703 9.99608 9.99803 9.99608H11.998C13.059 9.99608 14.076 10.416 14.826 11.166C15.577 11.916 15.998 12.9361 15.998 13.9961ZM4.99804 13.9961H-0.00195312V13.976C0.00804685 12.3261 1.34804 10.9961 2.99804 10.9961H4.99804C5.31204 10.9961 5.61406 11.046 5.89806 11.136C5.31606 11.966 4.99804 12.9661 4.99804 13.9961ZM4.00005 3.99609C5.10305 3.99609 5.99803 4.88609 5.99803 5.99608C5.99803 6.63608 5.99803 7.35608 5.99803 7.99608C5.99803 9.10608 5.10305 9.99608 4.00005 9.99608C3.99905 9.99608 3.99702 9.99608 3.99602 9.99608C2.89303 9.99608 1.99804 9.10608 1.99804 7.99608C1.99804 7.35608 1.99804 6.63608 1.99804 5.99608C1.99804 4.88609 2.89303 3.99609 3.99602 3.99609H4.00005ZM13.998 3.99609C13.998 2.33609 12.655 0.996094 10.998 0.996094C9.34103 0.996094 7.99803 2.33609 7.99803 3.99609C7.99803 4.64609 7.99803 5.34608 7.99803 5.99608C7.99803 7.65608 9.34103 8.99608 10.998 8.99608C12.655 8.99608 13.998 7.65608 13.998 5.99608C13.998 5.34608 13.998 4.64609 13.998 3.99609Z" fill="#333333"/>
</g>
<defs>
<clipPath id="clip0_2929_71">
<rect width="16" height="16" fill="white"/>
</clipPath>
</defs>
</svg>
