<svg width="16" height="16" viewBox="0 0 16 16" fill="none" xmlns="http://www.w3.org/2000/svg">
<path fill-rule="evenodd" clip-rule="evenodd" d="M13 1C14.104 1 15 1.896 15 3V13C15 14.104 14.104 15 13 15H3C1.896 15 1 14.104 1 13V3C1 1.896 1.896 1 3 1H13ZM13 9.5C13 9.224 12.776 9 12.5 9H9.5C9.224 9 9 9.224 9 9.5V12.5C9 12.776 9.224 13 9.5 13H12.5C12.776 13 13 12.776 13 12.5V9.5ZM6.5 11H3.5C3.224 11 3 11.224 3 11.5V12.5C3 12.776 3.224 13 3.5 13H6.5C6.776 13 7 12.776 7 12.5V11.5C7 11.224 6.776 11 6.5 11ZM7 3.5C7 3.224 6.776 3 6.5 3H3.5C3.224 3 3 3.224 3 3.5V8.5C3 8.776 3.224 9 3.5 9H6.5C6.776 9 7 8.776 7 8.5V3.5ZM12.5 3H9.5C9.224 3 9 3.224 9 3.5V6.5C9 6.776 9.224 7 9.5 7H12.5C12.776 7 13 6.776 13 6.5V3.5C13 3.224 12.776 3 12.5 3Z" fill="#333333"/>
</svg>
