<svg width="16" height="16" viewBox="0 0 16 16" fill="none" xmlns="http://www.w3.org/2000/svg">
<path fill-rule="evenodd" clip-rule="evenodd" d="M13 1C14.104 1 15 1.896 15 3V13C15 14.104 14.104 15 13 15H3C1.896 15 1 14.104 1 13V3C1 1.896 1.896 1 3 1H13ZM12.5 11H3.5C3.224 11 3 11.224 3 11.5V12.5C3 12.776 3.224 13 3.5 13H12.5C12.776 13 13 12.776 13 12.5V11.5C13 11.224 12.776 11 12.5 11ZM13 7.5C13 7.224 12.776 7 12.5 7H3.5C3.224 7 3 7.224 3 7.5V8.5C3 8.776 3.224 9 3.5 9H12.5C12.776 9 13 8.776 13 8.5V7.5ZM12.5 3H3.5C3.224 3 3 3.224 3 3.5V4.5C3 4.776 3.224 5 3.5 5H12.5C12.776 5 13 4.776 13 4.5V3.5C13 3.224 12.776 3 12.5 3Z" fill="#333333"/>
</svg>
