<svg width="16" height="16" viewBox="0 0 16 16" fill="none" xmlns="http://www.w3.org/2000/svg">
<path fill-rule="evenodd" clip-rule="evenodd" d="M6.937 1.291C7.118 1.111 7.367 1 7.642 1C8.194 1 8.642 1.448 8.642 2V14C8.642 14.552 8.194 15 7.642 15C7.371 15 7.125 14.892 6.945 14.717L3 11H1.25C0.56 11 0 10.44 0 9.75V6.25C0 5.56 0.56 5 1.25 5H3L6.937 1.291ZM12.993 7.381L14.547 5.828C14.867 5.508 15.387 5.508 15.707 5.828C16.027 6.148 16.027 6.668 15.707 6.989L14.154 8.542L15.707 10.095C16.024 10.412 16.024 10.926 15.707 11.242C15.39 11.559 14.876 11.559 14.56 11.242L13.006 9.689L11.453 11.242C11.133 11.563 10.613 11.563 10.293 11.242C9.972 10.922 9.972 10.402 10.293 10.082L11.846 8.529L10.293 6.976C9.976 6.659 9.976 6.145 10.293 5.828C10.609 5.511 11.124 5.511 11.44 5.828L12.993 7.381Z" fill="#333333"/>
</svg>
