<svg width="16" height="16" viewBox="0 0 16 16" fill="none" xmlns="http://www.w3.org/2000/svg">
<path fill-rule="evenodd" clip-rule="evenodd" d="M6.937 1.291C7.118 1.111 7.367 1 7.642 1C8.194 1 8.642 1.448 8.642 2V14C8.642 14.552 8.194 15 7.642 15C7.371 15 7.125 14.892 6.945 14.717L3 11H1.25C0.56 11 0 10.44 0 9.75V6.25C0 5.56 0.56 5 1.25 5H3L6.937 1.291ZM11 8C10.988 7.324 10.606 6.738 10.047 6.437C10.047 6.437 10.044 6.434 10.038 6.429C9.697 6.157 9.624 5.667 9.87 5.307C10.117 4.948 10.6 4.84 10.977 5.06C11.098 5.131 11.163 5.169 11.163 5.169C12.063 5.792 12.655 6.827 12.666 8C12.655 9.173 12.063 10.208 11.163 10.831C11.163 10.831 11.098 10.869 10.977 10.94C10.6 11.16 10.117 11.052 9.87 10.693C9.624 10.333 9.697 9.843 10.038 9.571C10.044 9.566 10.047 9.563 10.047 9.563C10.606 9.262 10.988 8.676 11 8Z" fill="#333333"/>
</svg>
