<svg width="16" height="16" viewBox="0 0 16 16" fill="none" xmlns="http://www.w3.org/2000/svg">
<path fill-rule="evenodd" clip-rule="evenodd" d="M11 16H2C0.896 16 0 15.104 0 14V6C0 4.896 0.896 4 2 4H3V3C3 1.896 3.896 1 5 1H14C15.104 1 16 1.896 16 3V11C16 12.104 15.104 13 14 13H13V14C13 15.104 12.104 16 11 16ZM3 8H2V13.517C2 13.784 2.216 14 2.483 14H10.506C10.779 14 11 13.779 11 13.506V13H5C3.896 13 3 12.104 3 11V8ZM14 5H5V10.5C5 10.776 5.224 11 5.5 11H13.5C13.776 11 14 10.776 14 10.5V5ZM6 2C6.552 2 7 2.448 7 3C7 3.552 6.552 4 6 4C5.448 4 5 3.552 5 3C5 2.448 5.448 2 6 2Z" fill="#333333"/>
</svg>
