<svg width="16" height="16" viewBox="0 0 16 16" fill="none" xmlns="http://www.w3.org/2000/svg">
<path fill-rule="evenodd" clip-rule="evenodd" d="M13 1C14.104 1 15 1.896 15 3V13C15 14.104 14.104 15 13 15H3C1.896 15 1 14.104 1 13V3C1 1.896 1.896 1 3 1H13ZM12.5 13C12.776 13 13 12.776 13 12.5V6H3V12.5C3 12.776 3.224 13 3.5 13H12.5ZM4 2.5C4.552 2.5 5 2.948 5 3.5C5 4.052 4.552 4.5 4 4.5C3.448 4.5 3 4.052 3 3.5C3 2.948 3.448 2.5 4 2.5ZM7 2.5C7.552 2.5 8 2.948 8 3.5C8 4.052 7.552 4.5 7 4.5C6.448 4.5 6 4.052 6 3.5C6 2.948 6.448 2.5 7 2.5Z" fill="#333333"/>
</svg>
