<svg width="16" height="16" viewBox="0 0 16 16" fill="none" xmlns="http://www.w3.org/2000/svg">
<path fill-rule="evenodd" clip-rule="evenodd" d="M12.8953 14.3085C11.5414 15.3612 9.84051 15.9885 7.99424 15.9885C3.58212 15.9885 0 12.4064 0 7.99424C0 3.58212 3.58212 0 7.99424 0C12.4064 0 15.9885 3.58212 15.9885 7.99424C15.9885 9.84051 15.3612 11.5414 14.3085 12.8953L15.7075 14.2943C16.0975 14.6843 16.0975 15.3175 15.7075 15.7075C15.3175 16.0975 14.6842 16.0975 14.2943 15.7075L12.8953 14.3085ZM7.99424 1.99856C11.3034 1.99856 13.9899 4.68513 13.9899 7.99424C13.9899 11.3034 11.3034 13.9899 7.99424 13.9899C4.68513 13.9899 1.99856 11.3034 1.99856 7.99424C1.99856 4.68513 4.68513 1.99856 7.99424 1.99856ZM6.99496 8.99352H4.59669C4.26583 8.99352 3.99712 8.72492 3.99712 8.39395V7.59453C3.99712 7.26367 4.26573 6.99496 4.59669 6.99496H6.99496H8.99352H11.3918C11.7228 6.99506 11.9914 7.26367 11.9914 7.59453V8.39395C11.9914 8.72482 11.7228 8.99342 11.3918 8.99352H8.99352H6.99496Z" fill="#333333"/>
</svg>
