<svg width="16" height="16" viewBox="0 0 16 16" fill="none" xmlns="http://www.w3.org/2000/svg">
<path fill-rule="evenodd" clip-rule="evenodd" d="M13 3H8C7.4481 3 7 2.5519 7 2C7 1.4481 7.4481 1 8 1H14C14.5519 1 15 1.4481 15 2V8C15 8.5519 14.5519 9 14 9C13.4481 9 13 8.5519 13 8V3ZM3 13H8C8.5519 13 9 13.4481 9 14C9 14.5519 8.5519 15 8 15H2C1.72405 15 1.47405 14.888 1.29304 14.707C1.11203 14.526 1 14.276 1 14V8C1 7.4481 1.4481 7 2 7C2.5519 7 3 7.4481 3 8V13ZM8 7C8.5519 7 9 7.4481 9 8C9 8.5519 8.5519 9 8 9C7.4481 9 7 8.5519 7 8C7 7.4481 7.4481 7 8 7Z" fill="#333333"/>
<mask id="mask0_0_2461" style="mask-type:luminance" maskUnits="userSpaceOnUse" x="1" y="1" width="14" height="14">
<path fill-rule="evenodd" clip-rule="evenodd" d="M13 3H8C7.4481 3 7 2.5519 7 2C7 1.4481 7.4481 1 8 1H14C14.5519 1 15 1.4481 15 2V8C15 8.5519 14.5519 9 14 9C13.4481 9 13 8.5519 13 8V3ZM3 13H8C8.5519 13 9 13.4481 9 14C9 14.5519 8.5519 15 8 15H2C1.72405 15 1.47405 14.888 1.29304 14.707C1.11203 14.526 1 14.276 1 14V8C1 7.4481 1.4481 7 2 7C2.5519 7 3 7.4481 3 8V13ZM8 7C8.5519 7 9 7.4481 9 8C9 8.5519 8.5519 9 8 9C7.4481 9 7 8.5519 7 8C7 7.4481 7.4481 7 8 7Z" fill="white"/>
</mask>
<g mask="url(#mask0_0_2461)">
</g>
</svg>
