<svg width="16" height="16" viewBox="0 0 16 16" fill="none" xmlns="http://www.w3.org/2000/svg">
<g clip-path="url(#clip0_1975_7)">
<path d="M12 4L15 4C15.5519 4 16 4.4481 16 5C16 5.5519 15.5519 6 15 6L11 6C10.4481 6 10 5.5519 10 5V1C10 0.448101 10.4481 0 11 0C11.5519 0 12 0.4481 12 1V4Z" fill="#333333"/>
<path d="M9 8C9 7.4481 8.5519 7 8 7C7.4481 7 7 7.4481 7 8C7 8.5519 7.4481 9 8 9C8.5519 9 9 8.5519 9 8Z" fill="#333333"/>
<path d="M1 12H4L4 15C4 15.5519 4.4481 16 5 16C5.5519 16 6 15.5519 6 15L6 11C6 10.724 5.88797 10.474 5.70696 10.293C5.52595 10.112 5.27595 10 5 10H0.999999C0.448099 10 0 10.4481 0 11C0 11.5519 0.4481 12 1 12Z" fill="#333333"/>
</g>
<defs>
<clipPath id="clip0_1975_7">
<rect width="16" height="16" fill="white"/>
</clipPath>
</defs>
</svg>
