<svg width="16" height="16" viewBox="0 0 16 16" fill="none" xmlns="http://www.w3.org/2000/svg">
<path fill-rule="evenodd" clip-rule="evenodd" d="M7.953 16C3.559 15.975 0 12.4 0 8C0 3.585 3.585 0 8 0C12.415 0 16 3.585 16 8C16 8 16 12.213 16 14.524C16 14.916 15.845 15.291 15.568 15.568C15.291 15.844 14.916 16 14.524 16C12.224 16 8.042 16 8.042 16H8H7.958H7.953ZM8 2C11.311 2 14 4.689 14 8C14 11.311 11.311 14 8 14C4.689 14 2 11.311 2 8C2 4.689 4.689 2 8 2ZM10.497 6.995C10.775 6.995 11 7.22 11 7.497V8.503C11 8.78 10.775 9.005 10.497 9.005H5.503C5.225 9.005 5 8.78 5 8.503V7.497C5 7.22 5.225 6.995 5.503 6.995H10.497Z" fill="#333333"/>
</svg>
