<svg width="16" height="16" viewBox="0 0 16 16" fill="none" xmlns="http://www.w3.org/2000/svg">
<path fill-rule="evenodd" clip-rule="evenodd" d="M7.953 16C3.559 15.975 0 12.4 0 8C0 3.585 3.585 0 8 0C12.415 0 16 3.585 16 8C16 8 16 12.232 16 14.54C16 14.927 15.846 15.298 15.572 15.572C15.299 15.846 14.927 16 14.54 16C12.243 16 8.042 16 8.042 16H8H7.958H7.953ZM8 1.99C11.311 1.99 14 4.678 14 7.99C14 11.301 11.311 13.99 8 13.99C4.689 13.99 2 11.301 2 7.99C2 4.678 4.689 1.99 8 1.99ZM8.503 5C8.78 5 9.005 5.225 9.005 5.503V7.012H10.497C10.775 7.012 11 7.237 11 7.514V8.52C11 8.797 10.775 9.022 10.497 9.022H9.005V10.503C9.005 10.78 8.78 11.005 8.503 11.005H7.497C7.22 11.005 6.995 10.78 6.995 10.503V9.022H5.503C5.225 9.022 5 8.797 5 8.52V7.514C5 7.237 5.225 7.012 5.503 7.012H6.995V5.503C6.995 5.225 7.22 5 7.497 5H8.503Z" fill="#333333"/>
</svg>
